<svg width="231" height="81" viewBox="0 0 231 81" fill="none" xmlns="http://www.w3.org/2000/svg">
<g filter="url(#filter0_d_128_221)">
<path d="M221.374 36.4008C222.394 36.4008 223.21 36.7068 223.822 37.3188C224.411 37.9308 224.706 38.7355 224.706 39.7328C224.706 40.7075 224.411 41.4895 223.822 42.0788C223.21 42.6908 222.394 42.9968 221.374 42.9968C220.308 42.9968 219.492 42.6908 218.926 42.0788C218.336 41.4895 218.042 40.7075 218.042 39.7328C218.042 38.7355 218.336 37.9308 218.926 37.3188C219.492 36.7068 220.308 36.4008 221.374 36.4008Z" fill="#FF6B6B"/>
<path d="M211.709 36.4008C212.729 36.4008 213.545 36.7068 214.157 37.3188C214.747 37.9308 215.041 38.7355 215.041 39.7328C215.041 40.7075 214.747 41.4895 214.157 42.0788C213.545 42.6908 212.729 42.9968 211.709 42.9968C210.644 42.9968 209.828 42.6908 209.261 42.0788C208.672 41.4895 208.377 40.7075 208.377 39.7328C208.377 38.7355 208.672 37.9308 209.261 37.3188C209.828 36.7068 210.644 36.4008 211.709 36.4008Z" fill="#FFE66D"/>
<path d="M202.045 36.4008C203.065 36.4008 203.881 36.7068 204.493 37.3188C205.083 37.9308 205.377 38.7355 205.377 39.7328C205.377 40.7075 205.083 41.4895 204.493 42.0788C203.881 42.6908 203.065 42.9968 202.045 42.9968C200.98 42.9968 200.164 42.6908 199.597 42.0788C199.008 41.4895 198.713 40.7075 198.713 39.7328C198.713 38.7355 199.008 37.9308 199.597 37.3188C200.164 36.7068 200.98 36.4008 202.045 36.4008Z" fill="#4ECDC4"/>
</g>
<g filter="url(#filter1_d_128_221)">
<path d="M64.398 33.1227C63.2247 33.1227 62.0247 33.0294 60.798 32.8427C59.598 32.6827 58.5047 32.376 57.518 31.9227C56.8514 31.656 56.3714 31.296 56.078 30.8427C55.8114 30.3894 55.678 29.9094 55.678 29.4027C55.7047 28.896 55.8514 28.4427 56.118 28.0427C56.4114 27.616 56.7847 27.3227 57.238 27.1627C57.718 26.976 58.2514 26.9894 58.838 27.2027C59.958 27.6027 60.958 27.896 61.838 28.0827C62.7447 28.2427 63.6114 28.3227 64.438 28.3227C65.4247 28.3227 66.1314 28.1894 66.558 27.9227C66.9847 27.6294 67.198 27.256 67.198 26.8027C67.198 26.4027 67.0514 26.096 66.758 25.8827C66.4914 25.6694 66.1047 25.5227 65.598 25.4427L61.158 24.7227C59.5047 24.4294 58.2247 23.8294 57.318 22.9227C56.4114 21.9894 55.958 20.776 55.958 19.2827C55.958 17.896 56.3447 16.7094 57.118 15.7227C57.918 14.7094 58.998 13.936 60.358 13.4027C61.7447 12.8427 63.3314 12.5627 65.118 12.5627C66.318 12.5627 67.4114 12.656 68.398 12.8427C69.3847 13.0027 70.3447 13.3094 71.278 13.7627C71.8647 14.0027 72.278 14.3494 72.518 14.8027C72.758 15.256 72.8514 15.736 72.798 16.2427C72.7447 16.7227 72.5714 17.176 72.278 17.6027C72.0114 18.0027 71.638 18.2827 71.158 18.4427C70.678 18.576 70.118 18.536 69.478 18.3227C68.598 17.976 67.8114 17.7227 67.118 17.5627C66.4514 17.4027 65.8247 17.3227 65.238 17.3227C64.1447 17.3227 63.3714 17.4694 62.918 17.7627C62.4647 18.056 62.238 18.4294 62.238 18.8827C62.238 19.2294 62.358 19.5227 62.598 19.7627C62.838 19.976 63.2114 20.1227 63.718 20.2027L68.158 20.9627C69.8647 21.2294 71.1714 21.816 72.078 22.7227C73.0114 23.6027 73.478 24.8027 73.478 26.3227C73.478 28.4827 72.6514 30.1627 70.998 31.3627C69.3447 32.536 67.1447 33.1227 64.398 33.1227Z" fill="white"/>
<path d="M85.1766 33.0427C84.27 33.0427 83.4833 32.8294 82.8166 32.4027C82.15 31.9494 81.6166 31.256 81.2166 30.3227L75.7766 17.1627C75.43 16.336 75.31 15.5894 75.4166 14.9227C75.5233 14.2294 75.8433 13.6827 76.3766 13.2827C76.9366 12.856 77.6966 12.6427 78.6566 12.6427C79.4833 12.6427 80.1633 12.8427 80.6966 13.2427C81.23 13.616 81.71 14.3627 82.1366 15.4827L85.9766 25.5627H85.1366L89.1766 14.7227C89.4433 14.0027 89.8033 13.4827 90.2566 13.1627C90.7366 12.816 91.3366 12.6427 92.0566 12.6427C92.83 12.6427 93.4433 12.816 93.8966 13.1627C94.35 13.5094 94.71 14.0294 94.9766 14.7227L99.0166 25.5627H98.2966L102.177 15.2427C102.55 14.2294 103.03 13.5494 103.617 13.2027C104.203 12.8294 104.83 12.6427 105.497 12.6427C106.403 12.6427 107.097 12.856 107.577 13.2827C108.057 13.7094 108.323 14.2694 108.377 14.9627C108.457 15.656 108.323 16.4027 107.977 17.2027L102.577 30.2827C102.203 31.216 101.683 31.9094 101.017 32.3627C100.35 32.816 99.5633 33.0427 98.6566 33.0427C97.7233 33.0427 96.9233 32.816 96.2566 32.3627C95.6166 31.9094 95.0966 31.216 94.6966 30.2827L90.2966 19.2827H93.2166L89.0566 30.2027C88.6833 31.1627 88.1766 31.8827 87.5366 32.3627C86.8966 32.816 86.11 33.0427 85.1766 33.0427Z" fill="white"/>
<path fill-rule="evenodd" clip-rule="evenodd" d="M125.445 32.1216C127.116 33.07 129.075 31.4204 128.348 29.6772L120.228 10.2015C119.531 8.52886 117.079 8.57312 116.443 10.2699L109.078 29.9248C108.42 31.6809 110.409 33.2569 112.046 32.2763L117.662 28.9129C118.3 28.5308 119.102 28.5213 119.749 28.8883L125.445 32.1216ZM118.664 24.596C120.516 24.596 122.016 23.1416 122.016 21.3476C122.016 19.5535 120.516 18.0992 118.664 18.0992C116.813 18.0992 115.313 19.5535 115.313 21.3476C115.313 23.1416 116.813 24.596 118.664 24.596Z" fill="white"/>
<path d="M138.207 33.1227C135.647 33.1227 133.754 32.4427 132.527 31.0827C131.327 29.696 130.727 27.616 130.727 24.8427V7.7227C130.727 6.54937 131.034 5.65603 131.647 5.0427C132.26 4.42937 133.127 4.1227 134.247 4.1227C135.394 4.1227 136.274 4.42937 136.887 5.0427C137.527 5.65603 137.847 6.54937 137.847 7.7227V24.6027C137.847 25.5894 138.034 26.3094 138.407 26.7627C138.807 27.216 139.314 27.4427 139.927 27.4427C140.114 27.4427 140.3 27.4294 140.487 27.4027C140.7 27.3494 140.927 27.3094 141.167 27.2827C141.62 27.2827 141.954 27.456 142.167 27.8027C142.407 28.1494 142.527 28.856 142.527 29.9227C142.527 30.856 142.34 31.5627 141.967 32.0427C141.594 32.496 141.02 32.7894 140.247 32.9227C140.034 32.9494 139.727 32.9894 139.327 33.0427C138.927 33.096 138.554 33.1227 138.207 33.1227Z" fill="white"/>
<path d="M148.599 33.0427C147.479 33.0427 146.612 32.736 145.999 32.1227C145.385 31.5094 145.079 30.616 145.079 29.4427V7.7227C145.079 6.54937 145.385 5.65603 145.999 5.0427C146.612 4.42937 147.479 4.1227 148.599 4.1227C149.745 4.1227 150.625 4.42937 151.239 5.0427C151.879 5.65603 152.199 6.54937 152.199 7.7227V20.9227H152.279L157.159 15.0027C157.825 14.2027 158.439 13.616 158.999 13.2427C159.585 12.8427 160.372 12.6427 161.359 12.6427C162.345 12.6427 163.105 12.8827 163.639 13.3627C164.172 13.8427 164.452 14.4427 164.479 15.1627C164.505 15.8827 164.212 16.6027 163.599 17.3227L158.319 23.5627V21.0827L164.239 28.5227C164.825 29.2694 165.065 30.0027 164.959 30.7227C164.852 31.416 164.505 31.976 163.919 32.4027C163.359 32.8294 162.639 33.0427 161.759 33.0427C160.692 33.0427 159.839 32.856 159.199 32.4827C158.559 32.0827 157.919 31.4694 157.279 30.6427L152.279 24.4827H152.199V29.4427C152.199 31.8427 150.999 33.0427 148.599 33.0427Z" fill="white"/>
<path d="M179.806 33.1227C177.406 33.1227 175.326 32.7094 173.566 31.8827C171.833 31.0294 170.5 29.8294 169.566 28.2827C168.633 26.736 168.166 24.9094 168.166 22.8027C168.166 20.776 168.606 19.0027 169.486 17.4827C170.393 15.936 171.62 14.736 173.166 13.8827C174.74 13.0027 176.526 12.5627 178.526 12.5627C179.993 12.5627 181.326 12.8027 182.526 13.2827C183.726 13.736 184.753 14.416 185.606 15.3227C186.46 16.2027 187.1 17.2694 187.526 18.5227C187.98 19.776 188.206 21.176 188.206 22.7227C188.206 23.256 188.06 23.656 187.766 23.9227C187.473 24.1627 187.006 24.2827 186.366 24.2827H174.126V20.9227H183.006L182.366 21.4427C182.366 20.456 182.233 19.656 181.966 19.0427C181.7 18.4294 181.3 17.9627 180.766 17.6427C180.26 17.3227 179.62 17.1627 178.846 17.1627C178.02 17.1627 177.3 17.3627 176.686 17.7627C176.1 18.136 175.646 18.696 175.326 19.4427C175.006 20.1894 174.846 21.1227 174.846 22.2427V22.6027C174.846 24.496 175.26 25.856 176.086 26.6827C176.94 27.4827 178.246 27.8827 180.006 27.8827C180.593 27.8827 181.26 27.816 182.006 27.6827C182.78 27.5227 183.513 27.3094 184.206 27.0427C184.9 26.776 185.5 26.736 186.006 26.9227C186.513 27.0827 186.9 27.376 187.166 27.8027C187.46 28.2027 187.62 28.6694 187.646 29.2027C187.673 29.7094 187.553 30.216 187.286 30.7227C187.02 31.2027 186.58 31.576 185.966 31.8427C185.033 32.2694 184.033 32.5894 182.966 32.8027C181.926 33.016 180.873 33.1227 179.806 33.1227Z" fill="white"/>
<path d="M195.648 33.0427C194.475 33.0427 193.568 32.736 192.928 32.1227C192.315 31.5094 192.008 30.616 192.008 29.4427V16.2027C192.008 15.056 192.302 14.176 192.888 13.5627C193.502 12.9494 194.368 12.6427 195.488 12.6427C196.608 12.6427 197.462 12.9494 198.048 13.5627C198.635 14.176 198.928 15.056 198.928 16.2027V17.8427H198.528C198.795 16.2427 199.475 14.976 200.568 14.0427C201.688 13.1094 203.075 12.616 204.728 12.5627C205.502 12.536 206.075 12.736 206.448 13.1627C206.848 13.5627 207.062 14.3227 207.088 15.4427C207.088 16.4027 206.888 17.1627 206.488 17.7227C206.088 18.2827 205.328 18.616 204.208 18.7227L203.288 18.8027C201.875 18.936 200.848 19.336 200.208 20.0027C199.568 20.6427 199.248 21.6027 199.248 22.8827V29.4427C199.248 30.616 198.942 31.5094 198.328 32.1227C197.715 32.736 196.822 33.0427 195.648 33.0427Z" fill="white"/>
<path d="M217.598 33.1227C216.425 33.1227 215.225 33.0294 213.998 32.8427C212.798 32.6827 211.705 32.376 210.718 31.9227C210.052 31.656 209.572 31.296 209.278 30.8427C209.012 30.3894 208.878 29.9094 208.878 29.4027C208.905 28.896 209.052 28.4427 209.318 28.0427C209.612 27.616 209.985 27.3227 210.438 27.1627C210.918 26.976 211.452 26.9894 212.038 27.2027C213.158 27.6027 214.158 27.896 215.038 28.0827C215.945 28.2427 216.812 28.3227 217.638 28.3227C218.625 28.3227 219.332 28.1894 219.758 27.9227C220.185 27.6294 220.398 27.256 220.398 26.8027C220.398 26.4027 220.252 26.096 219.958 25.8827C219.692 25.6694 219.305 25.5227 218.798 25.4427L214.358 24.7227C212.705 24.4294 211.425 23.8294 210.518 22.9227C209.612 21.9894 209.158 20.776 209.158 19.2827C209.158 17.896 209.545 16.7094 210.318 15.7227C211.118 14.7094 212.198 13.936 213.558 13.4027C214.945 12.8427 216.532 12.5627 218.318 12.5627C219.518 12.5627 220.612 12.656 221.598 12.8427C222.585 13.0027 223.545 13.3094 224.478 13.7627C225.065 14.0027 225.478 14.3494 225.718 14.8027C225.958 15.256 226.052 15.736 225.998 16.2427C225.945 16.7227 225.772 17.176 225.478 17.6027C225.212 18.0027 224.838 18.2827 224.358 18.4427C223.878 18.576 223.318 18.536 222.678 18.3227C221.798 17.976 221.012 17.7227 220.318 17.5627C219.652 17.4027 219.025 17.3227 218.438 17.3227C217.345 17.3227 216.572 17.4694 216.118 17.7627C215.665 18.056 215.438 18.4294 215.438 18.8827C215.438 19.2294 215.558 19.5227 215.798 19.7627C216.038 19.976 216.412 20.1227 216.918 20.2027L221.358 20.9627C223.065 21.2294 224.372 21.816 225.278 22.7227C226.212 23.6027 226.678 24.8027 226.678 26.3227C226.678 28.4827 225.852 30.1627 224.198 31.3627C222.545 32.536 220.345 33.1227 217.598 33.1227Z" fill="white"/>
</g>
<g filter="url(#filter2_d_128_221)">
<path d="M5.90019 76.144C5.44152 76.144 5.08952 76.0213 4.84419 75.776C4.59886 75.5307 4.47619 75.1733 4.47619 74.704V70.224H4.06019C3.71886 70.224 3.45219 70.1333 3.26019 69.952C3.07886 69.7707 2.98819 69.5093 2.98819 69.168C2.98819 68.8267 3.07886 68.5707 3.26019 68.4C3.45219 68.2187 3.71886 68.128 4.06019 68.128H5.29219L4.47619 68.88V68.432C4.47619 67.2587 4.75886 66.3733 5.32419 65.776C5.90019 65.1787 6.75352 64.8213 7.88419 64.704L8.33219 64.656C8.68419 64.6133 8.96152 64.656 9.16419 64.784C9.37752 64.9013 9.52152 65.0613 9.59619 65.264C9.67086 65.456 9.68686 65.6587 9.64419 65.872C9.61219 66.0853 9.53219 66.2667 9.40419 66.416C9.28686 66.5653 9.12686 66.6507 8.92419 66.672L8.63619 66.688C8.14552 66.72 7.80419 66.8373 7.61219 67.04C7.42019 67.232 7.32419 67.5147 7.32419 67.888V68.416L6.97219 68.128H11.5002C11.9589 68.128 12.3109 68.2613 12.5562 68.528C12.8015 68.784 12.9242 69.1627 12.9242 69.664V74.592C12.9242 75.0933 12.8015 75.4773 12.5562 75.744C12.3215 76.0107 11.9695 76.144 11.5002 76.144C11.0415 76.144 10.6895 76.0107 10.4442 75.744C10.1989 75.4773 10.0762 75.0933 10.0762 74.592V70.224H7.32419V74.704C7.32419 75.664 6.84952 76.144 5.90019 76.144ZM11.5642 66.848C11.0735 66.848 10.6949 66.7307 10.4282 66.496C10.1722 66.2613 10.0442 65.92 10.0442 65.472C10.0442 65.0347 10.1722 64.6987 10.4282 64.464C10.6949 64.2293 11.0735 64.112 11.5642 64.112C12.0549 64.112 12.4282 64.2293 12.6842 64.464C12.9509 64.6987 13.0842 65.0347 13.0842 65.472C13.0842 65.92 12.9509 66.2613 12.6842 66.496C12.4282 66.7307 12.0549 66.848 11.5642 66.848ZM15.6734 76.144C15.2254 76.144 14.8788 76.0213 14.6334 75.776C14.3881 75.5307 14.2654 75.1733 14.2654 74.704V69.408C14.2654 68.9493 14.3828 68.5973 14.6174 68.352C14.8628 68.1067 15.2094 67.984 15.6574 67.984C16.1054 67.984 16.4468 68.1067 16.6814 68.352C16.9161 68.5973 17.0334 68.9493 17.0334 69.408V70.16L16.8574 69.504C17.1134 69.0027 17.4761 68.6187 17.9454 68.352C18.4254 68.0853 18.9694 67.952 19.5774 67.952C20.2068 67.952 20.7241 68.0747 21.1294 68.32C21.5348 68.5547 21.8388 68.928 22.0414 69.44C22.2441 69.9413 22.3454 70.576 22.3454 71.344V74.704C22.3454 75.1733 22.2228 75.5307 21.9774 75.776C21.7321 76.0213 21.3801 76.144 20.9214 76.144C20.4628 76.144 20.1108 76.0213 19.8654 75.776C19.6201 75.5307 19.4974 75.1733 19.4974 74.704V71.456C19.4974 70.976 19.4121 70.6347 19.2414 70.432C19.0814 70.2293 18.8414 70.128 18.5214 70.128C18.0948 70.128 17.7534 70.2667 17.4974 70.544C17.2414 70.8107 17.1134 71.1733 17.1134 71.632V74.704C17.1134 75.664 16.6334 76.144 15.6734 76.144ZM26.7206 76.176C26.0486 76.176 25.4512 76.0107 24.9286 75.68C24.4166 75.3493 24.0112 74.8747 23.7126 74.256C23.4246 73.6373 23.2806 72.9067 23.2806 72.064C23.2806 71.2 23.4246 70.464 23.7126 69.856C24.0112 69.248 24.4166 68.7787 24.9286 68.448C25.4512 68.1173 26.0486 67.952 26.7206 67.952C27.3072 67.952 27.8352 68.0907 28.3046 68.368C28.7739 68.6453 29.0886 69.0027 29.2486 69.44H29.0726V66.016C29.0726 65.5467 29.1952 65.1893 29.4406 64.944C29.6859 64.6987 30.0379 64.576 30.4966 64.576C30.9446 64.576 31.2912 64.6987 31.5366 64.944C31.7926 65.1893 31.9206 65.5467 31.9206 66.016V74.704C31.9206 75.1733 31.7979 75.5307 31.5526 75.776C31.3179 76.0213 30.9712 76.144 30.5126 76.144C30.0646 76.144 29.7179 76.0213 29.4726 75.776C29.2272 75.5307 29.1046 75.1733 29.1046 74.704V73.792L29.2806 74.576C29.1312 75.056 28.8166 75.4453 28.3366 75.744C27.8672 76.032 27.3286 76.176 26.7206 76.176ZM27.6326 74.08C27.9206 74.08 28.1766 74.0107 28.4006 73.872C28.6246 73.7227 28.7952 73.504 28.9126 73.216C29.0406 72.9173 29.1046 72.5333 29.1046 72.064C29.1046 71.3493 28.9659 70.8373 28.6886 70.528C28.4112 70.208 28.0592 70.048 27.6326 70.048C27.3446 70.048 27.0886 70.1173 26.8646 70.256C26.6406 70.3947 26.4646 70.6133 26.3366 70.912C26.2086 71.2 26.1446 71.584 26.1446 72.064C26.1446 72.768 26.2832 73.28 26.5606 73.6C26.8379 73.92 27.1952 74.08 27.6326 74.08ZM39.7966 79.024C39.4659 79.024 39.1992 78.9387 38.9966 78.768C38.7939 78.5973 38.6659 78.3733 38.6126 78.096C38.5699 77.8187 38.6179 77.5253 38.7566 77.216L39.8286 74.896V76.048L37.0926 69.792C36.9539 69.472 36.9059 69.1733 36.9486 68.896C37.0019 68.6187 37.1459 68.4 37.3806 68.24C37.6152 68.0693 37.9352 67.984 38.3406 67.984C38.6819 67.984 38.9539 68.064 39.1566 68.224C39.3699 68.3733 39.5619 68.672 39.7326 69.12L41.3326 73.28H40.7886L42.4846 69.104C42.6552 68.6667 42.8472 68.3733 43.0606 68.224C43.2846 68.064 43.5832 67.984 43.9566 67.984C44.2766 67.984 44.5326 68.0693 44.7246 68.24C44.9166 68.4 45.0339 68.6187 45.0766 68.896C45.1192 69.1733 45.0712 69.472 44.9326 69.792L41.3006 77.952C41.1086 78.3787 40.8952 78.6613 40.6606 78.8C40.4366 78.9493 40.1486 79.024 39.7966 79.024ZM49.6257 76.176C48.751 76.176 47.9884 76.0107 47.3377 75.68C46.687 75.3493 46.1804 74.8747 45.8177 74.256C45.455 73.6373 45.2737 72.9067 45.2737 72.064C45.2737 71.424 45.375 70.8533 45.5777 70.352C45.7804 69.84 46.0737 69.408 46.4577 69.056C46.8417 68.6933 47.3004 68.4213 47.8337 68.24C48.367 68.048 48.9644 67.952 49.6257 67.952C50.5004 67.952 51.263 68.1173 51.9137 68.448C52.5644 68.7787 53.0657 69.2533 53.4177 69.872C53.7804 70.48 53.9617 71.2107 53.9617 72.064C53.9617 72.6933 53.8604 73.264 53.6577 73.776C53.455 74.288 53.1617 74.7253 52.7777 75.088C52.4044 75.44 51.9457 75.712 51.4017 75.904C50.8684 76.0853 50.2764 76.176 49.6257 76.176ZM49.6257 74.08C49.9137 74.08 50.1697 74.0107 50.3937 73.872C50.6177 73.7227 50.7884 73.504 50.9057 73.216C51.0337 72.9173 51.0977 72.5333 51.0977 72.064C51.0977 71.3493 50.959 70.8373 50.6817 70.528C50.4044 70.208 50.0524 70.048 49.6257 70.048C49.3377 70.048 49.0817 70.1173 48.8577 70.256C48.6337 70.3947 48.4577 70.6133 48.3297 70.912C48.2017 71.2 48.1377 71.584 48.1377 72.064C48.1377 72.768 48.2764 73.28 48.5537 73.6C48.831 73.92 49.1884 74.08 49.6257 74.08ZM57.8907 76.176C57.208 76.176 56.648 76.0533 56.2107 75.808C55.7734 75.552 55.4427 75.1733 55.2187 74.672C55.0054 74.1707 54.8987 73.536 54.8987 72.768V69.408C54.8987 68.9387 55.0214 68.5867 55.2667 68.352C55.512 68.1067 55.864 67.984 56.3227 67.984C56.7814 67.984 57.1334 68.1067 57.3787 68.352C57.624 68.5867 57.7467 68.9387 57.7467 69.408V72.848C57.7467 73.232 57.8267 73.52 57.9867 73.712C58.1467 73.904 58.3974 74 58.7387 74C59.1227 74 59.4374 73.8613 59.6827 73.584C59.928 73.3067 60.0507 72.9387 60.0507 72.48V69.408C60.0507 68.9387 60.1734 68.5867 60.4187 68.352C60.664 68.1067 61.016 67.984 61.4747 67.984C61.9334 67.984 62.2854 68.1067 62.5307 68.352C62.776 68.5867 62.8987 68.9387 62.8987 69.408V74.704C62.8987 75.664 62.44 76.144 61.5227 76.144C61.0747 76.144 60.728 76.0213 60.4827 75.776C60.2374 75.5307 60.1147 75.1733 60.1147 74.704V73.776L60.3707 74.56C60.136 75.0827 59.8054 75.4827 59.3787 75.76C58.9627 76.0373 58.4667 76.176 57.8907 76.176ZM65.6921 76.144C65.2227 76.144 64.8601 76.0213 64.6041 75.776C64.3587 75.5307 64.2361 75.1733 64.2361 74.704V69.408C64.2361 68.9493 64.3534 68.5973 64.5881 68.352C64.8334 68.1067 65.1801 67.984 65.6281 67.984C66.0761 67.984 66.4174 68.1067 66.6521 68.352C66.8867 68.5973 67.0041 68.9493 67.0041 69.408V70.064H66.8441C66.9507 69.424 67.2227 68.9173 67.6601 68.544C68.1081 68.1707 68.6627 67.9733 69.3241 67.952C69.6334 67.9413 69.8627 68.0213 70.0121 68.192C70.1721 68.352 70.2574 68.656 70.2681 69.104C70.2681 69.488 70.1881 69.792 70.0281 70.016C69.8681 70.24 69.5641 70.3733 69.1161 70.416L68.7481 70.448C68.1827 70.5013 67.7721 70.6613 67.5161 70.928C67.2601 71.184 67.1321 71.568 67.1321 72.08V74.704C67.1321 75.1733 67.0094 75.5307 66.7641 75.776C66.5187 76.0213 66.1614 76.144 65.6921 76.144ZM76.5197 79.024C76.0717 79.024 75.725 78.9013 75.4797 78.656C75.2344 78.4107 75.1117 78.0533 75.1117 77.584V69.408C75.1117 68.9493 75.229 68.5973 75.4637 68.352C75.709 68.1067 76.0557 67.984 76.5037 67.984C76.9624 67.984 77.309 68.1067 77.5437 68.352C77.789 68.5973 77.9117 68.9493 77.9117 69.408V70.336L77.7357 69.552C77.885 69.072 78.1944 68.688 78.6637 68.4C79.1437 68.1013 79.6877 67.952 80.2957 67.952C80.9784 67.952 81.5757 68.1173 82.0877 68.448C82.6104 68.7787 83.0157 69.248 83.3037 69.856C83.5917 70.464 83.7357 71.2 83.7357 72.064C83.7357 72.9067 83.5917 73.6373 83.3037 74.256C83.0157 74.8747 82.6104 75.3493 82.0877 75.68C81.5757 76.0107 80.9784 76.176 80.2957 76.176C79.709 76.176 79.181 76.0373 78.7117 75.76C78.2424 75.4827 77.9277 75.12 77.7677 74.672H77.9597V77.584C77.9597 78.0533 77.8317 78.4107 77.5757 78.656C77.3304 78.9013 76.9784 79.024 76.5197 79.024ZM79.3997 74.08C79.6877 74.08 79.9384 74.0107 80.1517 73.872C80.3757 73.7227 80.5517 73.504 80.6797 73.216C80.8077 72.9173 80.8717 72.5333 80.8717 72.064C80.8717 71.3493 80.733 70.8373 80.4557 70.528C80.1784 70.208 79.8264 70.048 79.3997 70.048C79.1117 70.048 78.8557 70.1173 78.6317 70.256C78.4077 70.3947 78.2317 70.6133 78.1037 70.912C77.9757 71.2 77.9117 71.584 77.9117 72.064C77.9117 72.768 78.0504 73.28 78.3277 73.6C78.605 73.92 78.9624 74.08 79.3997 74.08ZM87.4496 76.176C86.8416 76.176 86.3029 76.064 85.8336 75.84C85.3749 75.616 85.0122 75.312 84.7456 74.928C84.4896 74.5333 84.3616 74.0853 84.3616 73.584C84.3616 73.008 84.5109 72.5547 84.8096 72.224C85.1082 71.8933 85.5882 71.6587 86.2496 71.52C86.9109 71.3707 87.7909 71.296 88.8896 71.296H89.7696V72.64H88.8896C88.4736 72.64 88.1269 72.672 87.8496 72.736C87.5829 72.7893 87.3856 72.88 87.2576 73.008C87.1296 73.1253 87.0656 73.28 87.0656 73.472C87.0656 73.7173 87.1509 73.92 87.3216 74.08C87.5029 74.24 87.7589 74.32 88.0896 74.32C88.3562 74.32 88.5909 74.2613 88.7936 74.144C89.0069 74.0267 89.1776 73.8667 89.3056 73.664C89.4336 73.4507 89.4976 73.2053 89.4976 72.928V71.072C89.4976 70.688 89.3962 70.416 89.1936 70.256C89.0016 70.096 88.6656 70.016 88.1856 70.016C87.9296 70.016 87.6416 70.048 87.3216 70.112C87.0016 70.1653 86.6442 70.2667 86.2496 70.416C85.9616 70.5227 85.7162 70.5387 85.5136 70.464C85.3109 70.3893 85.1509 70.2613 85.0336 70.08C84.9269 69.8987 84.8736 69.7013 84.8736 69.488C84.8842 69.2747 84.9536 69.072 85.0816 68.88C85.2202 68.688 85.4282 68.5387 85.7056 68.432C86.2176 68.24 86.6869 68.112 87.1136 68.048C87.5509 67.984 87.9509 67.952 88.3136 67.952C89.1882 67.952 89.9082 68.08 90.4736 68.336C91.0496 68.5813 91.4762 68.9653 91.7536 69.488C92.0416 70 92.1856 70.6613 92.1856 71.472V74.704C92.1856 75.1733 92.0736 75.5307 91.8496 75.776C91.6256 76.0213 91.3002 76.144 90.8736 76.144C90.4362 76.144 90.1002 76.0213 89.8656 75.776C89.6416 75.5307 89.5296 75.1733 89.5296 74.704V74.288L89.6256 74.512C89.5722 74.8533 89.4496 75.1467 89.2576 75.392C89.0656 75.6373 88.8149 75.8293 88.5056 75.968C88.1962 76.1067 87.8442 76.176 87.4496 76.176ZM94.9433 76.144C94.474 76.144 94.1113 76.0213 93.8553 75.776C93.61 75.5307 93.4873 75.1733 93.4873 74.704V69.408C93.4873 68.9493 93.6047 68.5973 93.8393 68.352C94.0847 68.1067 94.4313 67.984 94.8793 67.984C95.3273 67.984 95.6687 68.1067 95.9033 68.352C96.138 68.5973 96.2553 68.9493 96.2553 69.408V70.064H96.0953C96.202 69.424 96.474 68.9173 96.9113 68.544C97.3593 68.1707 97.914 67.9733 98.5753 67.952C98.8847 67.9413 99.114 68.0213 99.2633 68.192C99.4233 68.352 99.5087 68.656 99.5193 69.104C99.5193 69.488 99.4393 69.792 99.2793 70.016C99.1193 70.24 98.8153 70.3733 98.3673 70.416L97.9993 70.448C97.434 70.5013 97.0233 70.6613 96.7673 70.928C96.5113 71.184 96.3833 71.568 96.3833 72.08V74.704C96.3833 75.1733 96.2607 75.5307 96.0153 75.776C95.77 76.0213 95.4127 76.144 94.9433 76.144ZM104.702 76.176C103.902 76.176 103.24 76.0533 102.718 75.808C102.206 75.5627 101.822 75.1947 101.566 74.704C101.31 74.2027 101.182 73.5787 101.182 72.832V70.224H100.638C100.296 70.224 100.03 70.1333 99.8376 69.952C99.6562 69.7707 99.5656 69.5093 99.5656 69.168C99.5656 68.8267 99.6562 68.5707 99.8376 68.4C100.03 68.2187 100.296 68.128 100.638 68.128H101.182V67.136C101.182 66.6667 101.304 66.3093 101.55 66.064C101.795 65.8187 102.147 65.696 102.606 65.696C103.064 65.696 103.416 65.8187 103.662 66.064C103.907 66.3093 104.03 66.6667 104.03 67.136V68.128H105.342C105.694 68.128 105.96 68.2187 106.142 68.4C106.334 68.5707 106.43 68.8267 106.43 69.168C106.43 69.5093 106.334 69.7707 106.142 69.952C105.96 70.1333 105.694 70.224 105.342 70.224H104.03V72.736C104.03 73.1307 104.12 73.424 104.302 73.616C104.494 73.7973 104.792 73.888 105.198 73.888C105.347 73.888 105.491 73.872 105.63 73.84C105.768 73.808 105.896 73.792 106.014 73.792C106.184 73.7813 106.323 73.8347 106.43 73.952C106.536 74.0587 106.59 74.3093 106.59 74.704C106.59 75.024 106.542 75.296 106.446 75.52C106.35 75.7333 106.179 75.888 105.934 75.984C105.784 76.0373 105.582 76.08 105.326 76.112C105.07 76.1547 104.862 76.176 104.702 76.176ZM108.474 76.144C108.026 76.144 107.679 76.0213 107.434 75.776C107.189 75.5307 107.066 75.1733 107.066 74.704V69.408C107.066 68.9493 107.183 68.5973 107.418 68.352C107.663 68.1067 108.01 67.984 108.458 67.984C108.906 67.984 109.247 68.1067 109.482 68.352C109.717 68.5973 109.834 68.9493 109.834 69.408V70.16L109.658 69.504C109.914 69.0027 110.277 68.6187 110.746 68.352C111.226 68.0853 111.77 67.952 112.378 67.952C113.007 67.952 113.525 68.0747 113.93 68.32C114.335 68.5547 114.639 68.928 114.842 69.44C115.045 69.9413 115.146 70.576 115.146 71.344V74.704C115.146 75.1733 115.023 75.5307 114.778 75.776C114.533 76.0213 114.181 76.144 113.722 76.144C113.263 76.144 112.911 76.0213 112.666 75.776C112.421 75.5307 112.298 75.1733 112.298 74.704V71.456C112.298 70.976 112.213 70.6347 112.042 70.432C111.882 70.2293 111.642 70.128 111.322 70.128C110.895 70.128 110.554 70.2667 110.298 70.544C110.042 70.8107 109.914 71.1733 109.914 71.632V74.704C109.914 75.664 109.434 76.144 108.474 76.144ZM120.737 76.176C119.777 76.176 118.945 76.0107 118.241 75.68C117.548 75.3387 117.015 74.8587 116.641 74.24C116.268 73.6213 116.081 72.8907 116.081 72.048C116.081 71.2373 116.257 70.528 116.609 69.92C116.972 69.3013 117.463 68.8213 118.081 68.48C118.711 68.128 119.425 67.952 120.225 67.952C120.812 67.952 121.345 68.048 121.825 68.24C122.305 68.4213 122.716 68.6933 123.057 69.056C123.399 69.408 123.655 69.8347 123.825 70.336C124.007 70.8373 124.097 71.3973 124.097 72.016C124.097 72.2293 124.039 72.3893 123.921 72.496C123.804 72.592 123.617 72.64 123.361 72.64H118.465V71.296H122.017L121.761 71.504C121.761 71.1093 121.708 70.7893 121.601 70.544C121.495 70.2987 121.335 70.112 121.121 69.984C120.919 69.856 120.663 69.792 120.353 69.792C120.023 69.792 119.735 69.872 119.489 70.032C119.255 70.1813 119.073 70.4053 118.945 70.704C118.817 71.0027 118.753 71.376 118.753 71.824V71.968C118.753 72.7253 118.919 73.2693 119.249 73.6C119.591 73.92 120.113 74.08 120.817 74.08C121.052 74.08 121.319 74.0533 121.617 74C121.927 73.936 122.22 73.8507 122.497 73.744C122.775 73.6373 123.015 73.6213 123.217 73.696C123.42 73.76 123.575 73.8773 123.681 74.048C123.799 74.208 123.863 74.3947 123.873 74.608C123.884 74.8107 123.836 75.0133 123.729 75.216C123.623 75.408 123.447 75.5573 123.201 75.664C122.828 75.8347 122.428 75.9627 122.001 76.048C121.585 76.1333 121.164 76.176 120.737 76.176ZM126.46 76.144C125.991 76.144 125.628 76.0213 125.372 75.776C125.127 75.5307 125.004 75.1733 125.004 74.704V69.408C125.004 68.9493 125.122 68.5973 125.356 68.352C125.602 68.1067 125.948 67.984 126.396 67.984C126.844 67.984 127.186 68.1067 127.42 68.352C127.655 68.5973 127.772 68.9493 127.772 69.408V70.064H127.612C127.719 69.424 127.991 68.9173 128.428 68.544C128.876 68.1707 129.431 67.9733 130.092 67.952C130.402 67.9413 130.631 68.0213 130.78 68.192C130.94 68.352 131.026 68.656 131.036 69.104C131.036 69.488 130.956 69.792 130.796 70.016C130.636 70.24 130.332 70.3733 129.884 70.416L129.516 70.448C128.951 70.5013 128.54 70.6613 128.284 70.928C128.028 71.184 127.9 71.568 127.9 72.08V74.704C127.9 75.1733 127.778 75.5307 127.532 75.776C127.287 76.0213 126.93 76.144 126.46 76.144ZM134.68 76.176C134.21 76.176 133.73 76.1387 133.24 76.064C132.76 76 132.322 75.8773 131.928 75.696C131.661 75.5893 131.469 75.4453 131.352 75.264C131.245 75.0827 131.192 74.8907 131.192 74.688C131.202 74.4853 131.261 74.304 131.368 74.144C131.485 73.9733 131.634 73.856 131.816 73.792C132.008 73.7173 132.221 73.7227 132.456 73.808C132.904 73.968 133.304 74.0853 133.656 74.16C134.018 74.224 134.365 74.256 134.696 74.256C135.09 74.256 135.373 74.2027 135.544 74.096C135.714 73.9787 135.8 73.8293 135.8 73.648C135.8 73.488 135.741 73.3653 135.624 73.28C135.517 73.1947 135.362 73.136 135.16 73.104L133.384 72.816C132.722 72.6987 132.21 72.4587 131.848 72.096C131.485 71.7227 131.304 71.2373 131.304 70.64C131.304 70.0853 131.458 69.6107 131.768 69.216C132.088 68.8107 132.52 68.5013 133.064 68.288C133.618 68.064 134.253 67.952 134.968 67.952C135.448 67.952 135.885 67.9893 136.28 68.064C136.674 68.128 137.058 68.2507 137.432 68.432C137.666 68.528 137.832 68.6667 137.928 68.848C138.024 69.0293 138.061 69.2213 138.04 69.424C138.018 69.616 137.949 69.7973 137.832 69.968C137.725 70.128 137.576 70.24 137.384 70.304C137.192 70.3573 136.968 70.3413 136.712 70.256C136.36 70.1173 136.045 70.016 135.768 69.952C135.501 69.888 135.25 69.856 135.016 69.856C134.578 69.856 134.269 69.9147 134.088 70.032C133.906 70.1493 133.816 70.2987 133.816 70.48C133.816 70.6187 133.864 70.736 133.96 70.832C134.056 70.9173 134.205 70.976 134.408 71.008L136.184 71.312C136.866 71.4187 137.389 71.6533 137.752 72.016C138.125 72.368 138.312 72.848 138.312 73.456C138.312 74.32 137.981 74.992 137.32 75.472C136.658 75.9413 135.778 76.176 134.68 76.176ZM140.827 77.92C140.656 78.1547 140.464 78.2827 140.251 78.304C140.048 78.336 139.872 78.2933 139.723 78.176C139.574 78.0693 139.488 77.9147 139.467 77.712C139.456 77.52 139.547 77.3067 139.739 77.072C140.006 76.7627 140.182 76.4533 140.267 76.144C140.352 75.8347 140.395 75.5573 140.395 75.312L140.491 76.096C140 76.096 139.606 75.9573 139.307 75.68C139.008 75.392 138.859 75.008 138.859 74.528C138.859 74.0693 138.998 73.7013 139.275 73.424C139.563 73.136 139.947 72.992 140.427 72.992C140.928 72.992 141.318 73.1627 141.595 73.504C141.872 73.8347 142.011 74.2987 142.011 74.896C142.011 75.1947 141.979 75.4987 141.915 75.808C141.862 76.1173 141.75 76.4427 141.579 76.784C141.419 77.136 141.168 77.5147 140.827 77.92ZM150.804 76.144C150.442 76.144 150.127 76.0587 149.86 75.888C149.594 75.7067 149.38 75.4293 149.22 75.056L147.044 69.792C146.906 69.4613 146.858 69.1627 146.9 68.896C146.943 68.6187 147.071 68.4 147.284 68.24C147.508 68.0693 147.812 67.984 148.196 67.984C148.527 67.984 148.799 68.064 149.012 68.224C149.226 68.3733 149.418 68.672 149.588 69.12L151.124 73.152H150.788L152.404 68.816C152.511 68.528 152.655 68.32 152.836 68.192C153.028 68.0533 153.268 67.984 153.556 67.984C153.866 67.984 154.111 68.0533 154.292 68.192C154.474 68.3307 154.618 68.5387 154.724 68.816L156.34 73.152H156.052L157.604 69.024C157.754 68.6187 157.946 68.3467 158.18 68.208C158.415 68.0587 158.666 67.984 158.932 67.984C159.295 67.984 159.572 68.0693 159.764 68.24C159.956 68.4107 160.063 68.6347 160.084 68.912C160.116 69.1893 160.063 69.488 159.924 69.808L157.764 75.04C157.615 75.4133 157.407 75.6907 157.14 75.872C156.874 76.0533 156.559 76.144 156.196 76.144C155.823 76.144 155.503 76.0533 155.236 75.872C154.98 75.6907 154.772 75.4133 154.612 75.04L152.852 70.64H154.02L152.356 75.008C152.207 75.392 152.004 75.68 151.748 75.872C151.492 76.0533 151.178 76.144 150.804 76.144ZM163.531 76.176C162.923 76.176 162.384 76.064 161.915 75.84C161.456 75.616 161.093 75.312 160.827 74.928C160.571 74.5333 160.443 74.0853 160.443 73.584C160.443 73.008 160.592 72.5547 160.891 72.224C161.189 71.8933 161.669 71.6587 162.331 71.52C162.992 71.3707 163.872 71.296 164.971 71.296H165.851V72.64H164.971C164.555 72.64 164.208 72.672 163.931 72.736C163.664 72.7893 163.467 72.88 163.339 73.008C163.211 73.1253 163.147 73.28 163.147 73.472C163.147 73.7173 163.232 73.92 163.403 74.08C163.584 74.24 163.84 74.32 164.171 74.32C164.437 74.32 164.672 74.2613 164.875 74.144C165.088 74.0267 165.259 73.8667 165.387 73.664C165.515 73.4507 165.579 73.2053 165.579 72.928V71.072C165.579 70.688 165.477 70.416 165.275 70.256C165.083 70.096 164.747 70.016 164.267 70.016C164.011 70.016 163.723 70.048 163.403 70.112C163.083 70.1653 162.725 70.2667 162.331 70.416C162.043 70.5227 161.797 70.5387 161.595 70.464C161.392 70.3893 161.232 70.2613 161.115 70.08C161.008 69.8987 160.955 69.7013 160.955 69.488C160.965 69.2747 161.035 69.072 161.163 68.88C161.301 68.688 161.509 68.5387 161.787 68.432C162.299 68.24 162.768 68.112 163.195 68.048C163.632 67.984 164.032 67.952 164.395 67.952C165.269 67.952 165.989 68.08 166.555 68.336C167.131 68.5813 167.557 68.9653 167.835 69.488C168.123 70 168.267 70.6613 168.267 71.472V74.704C168.267 75.1733 168.155 75.5307 167.931 75.776C167.707 76.0213 167.381 76.144 166.955 76.144C166.517 76.144 166.181 76.0213 165.947 75.776C165.723 75.5307 165.611 75.1733 165.611 74.704V74.288L165.707 74.512C165.653 74.8533 165.531 75.1467 165.339 75.392C165.147 75.6373 164.896 75.8293 164.587 75.968C164.277 76.1067 163.925 76.176 163.531 76.176ZM172.561 76.176C171.537 76.176 170.779 75.904 170.289 75.36C169.809 74.8053 169.569 73.9733 169.569 72.864V66.016C169.569 65.5467 169.691 65.1893 169.937 64.944C170.182 64.6987 170.529 64.576 170.977 64.576C171.435 64.576 171.787 64.6987 172.033 64.944C172.289 65.1893 172.417 65.5467 172.417 66.016V72.768C172.417 73.1627 172.491 73.4507 172.641 73.632C172.801 73.8133 173.003 73.904 173.249 73.904C173.323 73.904 173.398 73.8987 173.473 73.888C173.558 73.8667 173.649 73.8507 173.745 73.84C173.926 73.84 174.059 73.9093 174.145 74.048C174.241 74.1867 174.289 74.4693 174.289 74.896C174.289 75.2693 174.214 75.552 174.065 75.744C173.915 75.9253 173.686 76.0427 173.377 76.096C173.291 76.1067 173.169 76.1227 173.009 76.144C172.849 76.1653 172.699 76.176 172.561 76.176ZM176.219 76.144C175.771 76.144 175.424 76.0213 175.179 75.776C174.934 75.5307 174.811 75.1733 174.811 74.704V66.016C174.811 65.5467 174.934 65.1893 175.179 64.944C175.424 64.6987 175.771 64.576 176.219 64.576C176.678 64.576 177.03 64.6987 177.275 64.944C177.531 65.1893 177.659 65.5467 177.659 66.016V71.296H177.691L179.643 68.928C179.91 68.608 180.155 68.3733 180.379 68.224C180.614 68.064 180.928 67.984 181.323 67.984C181.718 67.984 182.022 68.08 182.235 68.272C182.448 68.464 182.56 68.704 182.571 68.992C182.582 69.28 182.464 69.568 182.219 69.856L180.107 72.352V71.36L182.475 74.336C182.71 74.6347 182.806 74.928 182.763 75.216C182.72 75.4933 182.582 75.7173 182.347 75.888C182.123 76.0587 181.835 76.144 181.483 76.144C181.056 76.144 180.715 76.0693 180.459 75.92C180.203 75.76 179.947 75.5147 179.691 75.184L177.691 72.72H177.659V74.704C177.659 75.664 177.179 76.144 176.219 76.144ZM191.166 76.176C190.697 76.176 190.217 76.1387 189.726 76.064C189.246 76 188.809 75.8773 188.414 75.696C188.148 75.5893 187.956 75.4453 187.838 75.264C187.732 75.0827 187.678 74.8907 187.678 74.688C187.689 74.4853 187.748 74.304 187.854 74.144C187.972 73.9733 188.121 73.856 188.302 73.792C188.494 73.7173 188.708 73.7227 188.942 73.808C189.39 73.968 189.79 74.0853 190.142 74.16C190.505 74.224 190.852 74.256 191.182 74.256C191.577 74.256 191.86 74.2027 192.03 74.096C192.201 73.9787 192.286 73.8293 192.286 73.648C192.286 73.488 192.228 73.3653 192.11 73.28C192.004 73.1947 191.849 73.136 191.646 73.104L189.87 72.816C189.209 72.6987 188.697 72.4587 188.334 72.096C187.972 71.7227 187.79 71.2373 187.79 70.64C187.79 70.0853 187.945 69.6107 188.254 69.216C188.574 68.8107 189.006 68.5013 189.55 68.288C190.105 68.064 190.74 67.952 191.454 67.952C191.934 67.952 192.372 67.9893 192.766 68.064C193.161 68.128 193.545 68.2507 193.918 68.432C194.153 68.528 194.318 68.6667 194.414 68.848C194.51 69.0293 194.548 69.2213 194.526 69.424C194.505 69.616 194.436 69.7973 194.318 69.968C194.212 70.128 194.062 70.24 193.87 70.304C193.678 70.3573 193.454 70.3413 193.198 70.256C192.846 70.1173 192.532 70.016 192.254 69.952C191.988 69.888 191.737 69.856 191.502 69.856C191.065 69.856 190.756 69.9147 190.574 70.032C190.393 70.1493 190.302 70.2987 190.302 70.48C190.302 70.6187 190.35 70.736 190.446 70.832C190.542 70.9173 190.692 70.976 190.894 71.008L192.67 71.312C193.353 71.4187 193.876 71.6533 194.238 72.016C194.612 72.368 194.798 72.848 194.798 73.456C194.798 74.32 194.468 74.992 193.806 75.472C193.145 75.9413 192.265 76.176 191.166 76.176ZM198.384 76.176C197.776 76.176 197.237 76.064 196.768 75.84C196.309 75.616 195.947 75.312 195.68 74.928C195.424 74.5333 195.296 74.0853 195.296 73.584C195.296 73.008 195.445 72.5547 195.744 72.224C196.043 71.8933 196.523 71.6587 197.184 71.52C197.845 71.3707 198.725 71.296 199.824 71.296H200.704V72.64H199.824C199.408 72.64 199.061 72.672 198.784 72.736C198.517 72.7893 198.32 72.88 198.192 73.008C198.064 73.1253 198 73.28 198 73.472C198 73.7173 198.085 73.92 198.256 74.08C198.437 74.24 198.693 74.32 199.024 74.32C199.291 74.32 199.525 74.2613 199.728 74.144C199.941 74.0267 200.112 73.8667 200.24 73.664C200.368 73.4507 200.432 73.2053 200.432 72.928V71.072C200.432 70.688 200.331 70.416 200.128 70.256C199.936 70.096 199.6 70.016 199.12 70.016C198.864 70.016 198.576 70.048 198.256 70.112C197.936 70.1653 197.579 70.2667 197.184 70.416C196.896 70.5227 196.651 70.5387 196.448 70.464C196.245 70.3893 196.085 70.2613 195.968 70.08C195.861 69.8987 195.808 69.7013 195.808 69.488C195.819 69.2747 195.888 69.072 196.016 68.88C196.155 68.688 196.363 68.5387 196.64 68.432C197.152 68.24 197.621 68.112 198.048 68.048C198.485 67.984 198.885 67.952 199.248 67.952C200.123 67.952 200.843 68.08 201.408 68.336C201.984 68.5813 202.411 68.9653 202.688 69.488C202.976 70 203.12 70.6613 203.12 71.472V74.704C203.12 75.1733 203.008 75.5307 202.784 75.776C202.56 76.0213 202.235 76.144 201.808 76.144C201.371 76.144 201.035 76.0213 200.8 75.776C200.576 75.5307 200.464 75.1733 200.464 74.704V74.288L200.56 74.512C200.507 74.8533 200.384 75.1467 200.192 75.392C200 75.6373 199.749 75.8293 199.44 75.968C199.131 76.1067 198.779 76.176 198.384 76.176ZM206.518 76.144C206.059 76.144 205.707 76.0213 205.462 75.776C205.216 75.5307 205.094 75.1733 205.094 74.704V70.224H204.678C204.336 70.224 204.07 70.1333 203.878 69.952C203.696 69.7707 203.606 69.5093 203.606 69.168C203.606 68.8267 203.696 68.5707 203.878 68.4C204.07 68.2187 204.336 68.128 204.678 68.128H205.91L205.094 68.88V68.432C205.094 67.248 205.387 66.3627 205.974 65.776C206.571 65.1787 207.456 64.8213 208.63 64.704L209.094 64.656C209.435 64.6133 209.707 64.656 209.91 64.784C210.112 64.9013 210.251 65.0613 210.326 65.264C210.4 65.456 210.416 65.6587 210.374 65.872C210.342 66.0853 210.262 66.2667 210.134 66.416C210.006 66.5653 209.835 66.6507 209.622 66.672L209.398 66.688C208.854 66.7307 208.475 66.848 208.262 67.04C208.048 67.232 207.942 67.5147 207.942 67.888V68.416L207.59 68.128H208.854C209.206 68.128 209.472 68.2187 209.654 68.4C209.835 68.5707 209.926 68.8267 209.926 69.168C209.926 69.5093 209.835 69.7707 209.654 69.952C209.472 70.1333 209.206 70.224 208.854 70.224H207.942V74.704C207.942 75.664 207.467 76.144 206.518 76.144ZM214.655 76.176C213.695 76.176 212.863 76.0107 212.159 75.68C211.466 75.3387 210.933 74.8587 210.559 74.24C210.186 73.6213 209.999 72.8907 209.999 72.048C209.999 71.2373 210.175 70.528 210.527 69.92C210.89 69.3013 211.381 68.8213 211.999 68.48C212.629 68.128 213.343 67.952 214.143 67.952C214.73 67.952 215.263 68.048 215.743 68.24C216.223 68.4213 216.634 68.6933 216.975 69.056C217.317 69.408 217.573 69.8347 217.743 70.336C217.925 70.8373 218.015 71.3973 218.015 72.016C218.015 72.2293 217.957 72.3893 217.839 72.496C217.722 72.592 217.535 72.64 217.279 72.64H212.383V71.296H215.935L215.679 71.504C215.679 71.1093 215.626 70.7893 215.519 70.544C215.413 70.2987 215.253 70.112 215.039 69.984C214.837 69.856 214.581 69.792 214.271 69.792C213.941 69.792 213.653 69.872 213.407 70.032C213.173 70.1813 212.991 70.4053 212.863 70.704C212.735 71.0027 212.671 71.376 212.671 71.824V71.968C212.671 72.7253 212.837 73.2693 213.167 73.6C213.509 73.92 214.031 74.08 214.735 74.08C214.97 74.08 215.237 74.0533 215.535 74C215.845 73.936 216.138 73.8507 216.415 73.744C216.693 73.6373 216.933 73.6213 217.135 73.696C217.338 73.76 217.493 73.8773 217.599 74.048C217.717 74.208 217.781 74.3947 217.791 74.608C217.802 74.8107 217.754 75.0133 217.647 75.216C217.541 75.408 217.365 75.5573 217.119 75.664C216.746 75.8347 216.346 75.9627 215.919 76.048C215.503 76.1333 215.082 76.176 214.655 76.176ZM220.378 76.144C219.909 76.144 219.546 76.0213 219.29 75.776C219.045 75.5307 218.922 75.1733 218.922 74.704V69.408C218.922 68.9493 219.04 68.5973 219.274 68.352C219.52 68.1067 219.866 67.984 220.314 67.984C220.762 67.984 221.104 68.1067 221.338 68.352C221.573 68.5973 221.69 68.9493 221.69 69.408V70.064H221.53C221.637 69.424 221.909 68.9173 222.346 68.544C222.794 68.1707 223.349 67.9733 224.01 67.952C224.32 67.9413 224.549 68.0213 224.698 68.192C224.858 68.352 224.944 68.656 224.954 69.104C224.954 69.488 224.874 69.792 224.714 70.016C224.554 70.24 224.25 70.3733 223.802 70.416L223.434 70.448C222.869 70.5013 222.458 70.6613 222.202 70.928C221.946 71.184 221.818 71.568 221.818 72.08V74.704C221.818 75.1733 221.696 75.5307 221.45 75.776C221.205 76.0213 220.848 76.144 220.378 76.144Z" fill="white"/>
</g>
<defs>
<filter id="filter0_d_128_221" x="196.713" y="34.4008" width="29.9922" height="10.596" filterUnits="userSpaceOnUse" color-interpolation-filters="sRGB">
<feFlood flood-opacity="0" result="BackgroundImageFix"/>
<feColorMatrix in="SourceAlpha" type="matrix" values="0 0 0 0 0 0 0 0 0 0 0 0 0 0 0 0 0 0 127 0" result="hardAlpha"/>
<feOffset/>
<feGaussianBlur stdDeviation="1"/>
<feComposite in2="hardAlpha" operator="out"/>
<feColorMatrix type="matrix" values="0 0 0 0 0 0 0 0 0 0 0 0 0 0 0 0 0 0 0.25 0"/>
<feBlend mode="normal" in2="BackgroundImageFix" result="effect1_dropShadow_128_221"/>
<feBlend mode="normal" in="SourceGraphic" in2="effect1_dropShadow_128_221" result="shape"/>
</filter>
<filter id="filter1_d_128_221" x="50.3999" y="-2" width="181.2" height="42.3654" filterUnits="userSpaceOnUse" color-interpolation-filters="sRGB">
<feFlood flood-opacity="0" result="BackgroundImageFix"/>
<feColorMatrix in="SourceAlpha" type="matrix" values="0 0 0 0 0 0 0 0 0 0 0 0 0 0 0 0 0 0 127 0" result="hardAlpha"/>
<feOffset/>
<feGaussianBlur stdDeviation="2"/>
<feComposite in2="hardAlpha" operator="out"/>
<feColorMatrix type="matrix" values="0 0 0 0 0 0 0 0 0 0 0 0 0 0 0 0 0 0 0.25 0"/>
<feBlend mode="normal" in2="BackgroundImageFix" result="effect1_dropShadow_128_221"/>
<feBlend mode="normal" in="SourceGraphic" in2="effect1_dropShadow_128_221" result="shape"/>
</filter>
<filter id="filter2_d_128_221" x="1.98828" y="63.112" width="223.966" height="16.912" filterUnits="userSpaceOnUse" color-interpolation-filters="sRGB">
<feFlood flood-opacity="0" result="BackgroundImageFix"/>
<feColorMatrix in="SourceAlpha" type="matrix" values="0 0 0 0 0 0 0 0 0 0 0 0 0 0 0 0 0 0 127 0" result="hardAlpha"/>
<feOffset/>
<feGaussianBlur stdDeviation="0.5"/>
<feComposite in2="hardAlpha" operator="out"/>
<feColorMatrix type="matrix" values="0 0 0 0 0 0 0 0 0 0 0 0 0 0 0 0 0 0 0.3 0"/>
<feBlend mode="normal" in2="BackgroundImageFix" result="effect1_dropShadow_128_221"/>
<feBlend mode="normal" in="SourceGraphic" in2="effect1_dropShadow_128_221" result="shape"/>
</filter>
</defs>
</svg>
