<svg width="64" height="64" viewBox="0 0 64 64" fill="none" xmlns="http://www.w3.org/2000/svg">
<g clip-path="url(#clip0_102_1645)">
<path d="M32.0435 17.5021C23.9891 17.5021 17.4585 24.0327 17.4585 32.0871C17.4585 40.1415 23.9891 46.6721 32.0435 46.6721C40.098 46.6721 46.6286 40.1415 46.6286 32.0871C46.585 24.0327 40.0544 17.5021 32.0435 17.5021Z" fill="#3880FF"/>
<path d="M52.9415 18.8082C56.6204 18.8082 59.6027 15.8258 59.6027 12.1469C59.6027 8.46805 56.6204 5.48572 52.9415 5.48572C49.2626 5.48572 46.2803 8.46805 46.2803 12.1469C46.2803 15.8258 49.2626 18.8082 52.9415 18.8082Z" fill="#3880FF"/>
<path d="M61.1265 18.8082L60.8653 18.1986L60.4299 18.7211C59.3415 19.9401 57.9483 20.898 56.4245 21.4639L55.9891 21.6381L56.1633 22.0735C57.5129 25.2517 58.166 28.6476 58.166 32.0871C58.166 46.498 46.4544 58.2531 32 58.2531C17.5456 58.2531 5.87755 46.498 5.87755 32.0871C5.87755 17.6762 17.5891 5.92108 32.0435 5.92108C35.9619 5.92108 39.7061 6.79183 43.2327 8.44626L43.6245 8.62041L43.7986 8.18504C44.4517 6.66123 45.4531 5.3551 46.7592 4.3102L47.2816 3.87483L46.6721 3.57007C42.1007 1.21905 37.181 0 32 0C14.3673 0 0 14.3673 0 32C0 49.6327 14.3673 64 32 64C49.6327 64 64 49.6327 64 32C64 27.4721 63.0422 23.0313 61.1265 18.8082Z" fill="#3880FF"/>
</g>
<defs>
<clipPath id="clip0_102_1645">
<rect width="64" height="64" fill="white"/>
</clipPath>
</defs>
</svg>
