<svg width="42" height="38" viewBox="0 0 42 38" fill="none" xmlns="http://www.w3.org/2000/svg">
<path d="M21 36.25C31.5858 36.25 40.1667 28.5258 40.1667 19C40.1667 9.47417 31.5858 1.75 21 1.75C10.4143 1.75 1.83337 9.47417 1.83337 19C1.83337 28.5258 10.4143 36.25 21 36.25Z" fill="#8B92BD" stroke="#8B92BD" strokeWidth="1.91667" strokeLinecap="round" strokeLinejoin="round"/>
<path d="M29.625 15.1666H32.155C32.4332 15.1668 32.708 15.2275 32.9604 15.3445C33.2128 15.4616 33.4367 15.6322 33.6166 15.8444C33.7964 16.0567 33.9279 16.3056 34.0018 16.5739C34.0758 16.8421 34.0904 17.1232 34.0448 17.3976L33.7247 19.3143C33.6503 19.7618 33.4196 20.1685 33.0735 20.4619C32.7275 20.7553 32.2886 20.9164 31.8349 20.9166H28.6666" fill="#8B92BD"/>
<path d="M29.625 15.1666H32.155C32.4332 15.1668 32.708 15.2275 32.9604 15.3445C33.2128 15.4616 33.4367 15.6322 33.6166 15.8444C33.7964 16.0567 33.9279 16.3056 34.0018 16.5739C34.0758 16.8421 34.0904 17.1232 34.0448 17.3976L33.7247 19.3143C33.6503 19.7618 33.4196 20.1685 33.0735 20.4619C32.7275 20.7553 32.2886 20.9164 31.8349 20.9166H28.6666" stroke="black" strokeWidth="1.91667" strokeLinecap="round" strokeLinejoin="round"/>
<path d="M27.7084 24.75L28.4655 20.9665L29.625 15.1666" fill="#8B92BD"/>
<path d="M27.7084 24.75L28.4655 20.9665L29.625 15.1666" stroke="black" strokeWidth="1.91667" strokeLinecap="round" strokeLinejoin="round"/>
<path d="M20.2333 15.1666H24.8333L23.8749 20.9166" fill="#8B92BD"/>
<path d="M20.2333 15.1666H24.8333L23.8749 20.9166" stroke="black" strokeWidth="1.91667" strokeLinecap="round" strokeLinejoin="round"/>
<path d="M21 10.375L19.0834 20.9167Z" fill="#8B92BD"/>
<path d="M21 10.375L19.0834 20.9167" stroke="black" strokeWidth="1.91667" strokeLinecap="round" strokeLinejoin="round"/>
<path d="M10.4583 15.1666H12.9883C13.2666 15.1668 13.5414 15.2275 13.7938 15.3445C14.0462 15.4616 14.2701 15.6322 14.4499 15.8444C14.6298 16.0567 14.7612 16.3056 14.8352 16.5739C14.9091 16.8421 14.9238 17.1232 14.8782 17.3976L14.5581 19.3143C14.4837 19.7618 14.2529 20.1685 13.9069 20.4619C13.5608 20.7553 13.1219 20.9164 12.6682 20.9166H9.5" fill="#8B92BD"/>
<path d="M10.4583 15.1666H12.9883C13.2666 15.1668 13.5414 15.2275 13.7938 15.3445C14.0462 15.4616 14.2701 15.6322 14.4499 15.8444C14.6298 16.0567 14.7612 16.3056 14.8352 16.5739C14.9091 16.8421 14.9238 17.1232 14.8782 17.3976L14.5581 19.3143C14.4837 19.7618 14.2529 20.1685 13.9069 20.4619C13.5608 20.7553 13.1219 20.9164 12.6682 20.9166H9.5" stroke="black" strokeWidth="1.91667" strokeLinecap="round" strokeLinejoin="round"/>
<path d="M8.54163 24.75L9.29871 20.9665L10.4583 15.1666" fill="#8B92BD"/>
<path d="M8.54163 24.75L9.29871 20.9665L10.4583 15.1666" stroke="black" strokeWidth="1.91667" strokeLinecap="round" strokeLinejoin="round"/>
</svg>
