<svg width="179" height="156" viewBox="0 0 179 156" fill="none" xmlns="http://www.w3.org/2000/svg">
<path d="M11.81 4.25416e-06C8.68125 -2.3227e-07 5.68036 1.24152 3.46613 3.452C1.2519 5.66248 0.00529847 8.66126 0 11.79V144.21C0.00529847 147.339 1.2519 150.338 3.46613 152.548C5.68036 154.758 8.68125 156 11.81 156H166.76C169.882 156.003 172.878 154.769 175.093 152.569C177.308 150.369 178.561 147.382 178.58 144.26V11.79C178.575 8.65953 177.327 5.65923 175.11 3.44846C172.894 1.2377 169.89 -0.00265093 166.76 4.25416e-06H11.81Z" fill="white"/>
<path d="M15.87 94.6C20.87 117.86 25.03 140.01 39.6 155.95H11.81C8.68988 155.95 5.69652 154.715 3.48372 152.516C1.27092 150.316 0.0184935 147.33 0 144.21V11.79C0.00529847 8.66126 1.2519 5.66248 3.46613 3.452C5.68036 1.24152 8.68125 -2.3227e-07 11.81 4.25416e-06H31.89C26.9969 4.46135 22.7012 9.53677 19.11 15.1C3.22 39.45 9.75 66 15.87 94.6ZM166.76 4.25416e-06H135.25C142.71 7.46 149 17.12 153.75 29.13L105.85 39.24C100.6 29.18 92.62 20.81 77.01 24.1C68.4 25.92 62.69 30.75 60.16 36.04C57.05 42.56 55.52 49.87 62.96 84.61C70.4 119.35 74.78 125.41 80.28 130.11C84.75 133.91 91.96 136.02 100.57 134.2C116.19 130.91 120.04 120.04 120.72 108.73L168.62 98.61C169.75 123.39 162.08 142.61 148.54 155.9H166.76C169.882 155.903 172.878 154.669 175.093 152.469C177.308 150.269 178.561 147.282 178.58 144.16V11.79C178.575 8.65953 177.327 5.65923 175.11 3.44846C172.894 1.2377 169.89 -0.00265093 166.76 4.25416e-06Z" fill="#F47C00"/>
</svg>
