<svg width="40" height="40" viewBox="0 0 40 40" fill="none" xmlns="http://www.w3.org/2000/svg">
<path d="M20.0002 3.33334C10.8002 3.33334 3.3335 10.8 3.3335 20C3.3335 29.2 10.8002 36.6667 20.0002 36.6667C29.2002 36.6667 36.6668 29.2 36.6668 20C36.6668 10.8 29.2002 3.33334 20.0002 3.33334ZM20.0002 33.3333C12.6502 33.3333 6.66683 27.35 6.66683 20C6.66683 12.65 12.6502 6.66667 20.0002 6.66667C27.3502 6.66667 33.3335 12.65 33.3335 20C33.3335 27.35 27.3502 33.3333 20.0002 33.3333ZM27.6502 12.6333L16.6668 23.6167L12.3502 19.3167L10.0002 21.6667L16.6668 28.3333L30.0002 15L27.6502 12.6333Z" fill="black"/>
</svg>
