<svg width="96" height="132" viewBox="0 0 96 132" fill="none" xmlns="http://www.w3.org/2000/svg">
<path d="M0.0522461 105.749L16.1844 2.52083C16.3816 1.25483 17.3662 0.256826 18.6294 0.0422264C19.8926 -0.172374 21.1514 0.445027 21.7554 1.57493L38.4389 32.6922L45.089 20.0307C45.604 19.0517 46.6192 18.4387 47.7255 18.4387C48.8318 18.4387 49.8471 19.0517 50.3622 20.0307L95.3848 105.749L0.0522461 105.749Z" fill="#FFA000"/>
<path d="M55.7848 65.5377L38.4312 32.6775L0.0522461 105.749L55.7848 65.5377Z" fill="#F57C00"/>
<path d="M95.3855 105.749L83.0294 29.2886C82.8428 28.1906 82.0591 27.2886 80.9979 26.9486C79.9367 26.6086 78.7753 26.8916 77.9872 27.6788L0.0522461 105.748L43.1756 129.931C45.8836 131.443 49.1816 131.443 51.8896 129.931L95.3855 105.748V105.749Z" fill="#FFCA28"/>
<path d="M83.0292 29.2886C82.8425 28.1906 82.0589 27.2886 80.9977 26.9486C79.9365 26.6086 78.7751 26.8916 77.987 27.6788L62.5187 43.1864L50.3552 20.0302C49.8402 19.0512 48.8249 18.4382 47.7186 18.4382C46.6123 18.4382 45.5971 19.0512 45.082 20.0302L38.432 32.6917L21.7477 1.57494C21.1427 0.44474 19.8824 -0.171661 18.6177 0.0445393C17.353 0.260739 16.3717 1.26124 16.1767 2.52824L0.052 105.749H0L0.052 105.809L0.4765 106.017L77.9645 28.4395C78.7522 27.648 79.9165 27.3635 80.9805 27.7025C82.0445 28.0415 82.8295 28.947 83.0143 30.0482L95.2661 105.823L95.3853 105.749L83.0292 29.2886ZM0.193501 105.607L16.1842 3.25824C16.379 1.99124 17.3626 0.990739 18.6262 0.774539C19.8898 0.558339 21.1502 1.17454 21.7562 2.30494L38.4387 33.4222L45.0887 20.7607C45.6037 19.7817 46.619 19.1687 47.7253 19.1687C48.8316 19.1687 49.8468 19.7817 50.3619 20.7607L62.2786 43.4247L0.193501 105.607Z" fill="white" fill-opacity="0.2"/>
<path opacity="0.2" d="M51.8897 129.202C49.1817 130.714 45.8838 130.714 43.1758 129.202L0.156546 105.086L0.0522461 105.749L43.1757 129.925C45.8837 131.437 49.1816 131.437 51.8896 129.925L95.3854 105.749L95.2738 105.064L51.8897 129.202Z" fill="#A52714"/>
<path d="M82.9057 29.3044C82.7197 28.2067 81.9388 27.3044 80.8813 26.9664C79.8239 26.6284 78.6665 26.9094 77.8811 27.6964L62.466 43.1962L50.346 20.0507C49.8327 19.0721 48.821 18.4593 47.7188 18.4593C46.6165 18.4593 45.6048 19.0721 45.0915 20.0507L38.4637 32.7067L21.8387 1.60284C21.2357 0.473145 19.9799 -0.143155 18.7207 0.0731447C17.4615 0.289445 16.4813 1.28914 16.2873 2.55585L0.21875 105.731L43.1915 129.897C45.89 131.408 49.1765 131.408 51.8751 129.897L95.2188 105.731L82.9057 29.3042V29.3044Z" fill="url(#paint0_linear_113_2702)"/>
<defs>
<linearGradient id="paint0_linear_113_2702" x1="-331.331" y1="2229.65" x2="11523.8" y2="8483.1" gradientUnits="userSpaceOnUse">
<stop stop-color="white" stop-opacity="0.1"/>
<stop offset="0.14" stop-color="white" stop-opacity="0.08"/>
<stop offset="0.61" stop-color="white" stop-opacity="0.02"/>
<stop offset="1" stop-color="white" stop-opacity="0"/>
</linearGradient>
</defs>
</svg>
