<svg width="38" height="38" viewBox="0 0 38 38" fill="none" xmlns="http://www.w3.org/2000/svg">
<path d="M5.58333 22.8333C6.6 22.8333 7.57502 22.4294 8.29391 21.7105C9.0128 20.9916 9.41667 20.0166 9.41667 19C9.41667 17.9833 9.0128 17.0083 8.29391 16.2894C7.57502 15.5705 6.6 15.1666 5.58333 15.1666C4.56667 15.1666 3.59165 15.5705 2.87276 16.2894C2.15387 17.0083 1.75 17.9833 1.75 19C1.75 20.0166 2.15387 20.9916 2.87276 21.7105C3.59165 22.4294 4.56667 22.8333 5.58333 22.8333Z" stroke="black" strokeWidth="1.91667" strokeLinecap="round" strokeLinejoin="round"/>
<path d="M32.4167 9.41667C33.4334 9.41667 34.4084 9.0128 35.1273 8.29391C35.8462 7.57502 36.25 6.6 36.25 5.58333C36.25 4.56667 35.8462 3.59165 35.1273 2.87276C34.4084 2.15387 33.4334 1.75 32.4167 1.75C31.4 1.75 30.425 2.15387 29.7061 2.87276C28.9872 3.59165 28.5834 4.56667 28.5834 5.58333C28.5834 6.6 28.9872 7.57502 29.7061 8.29391C30.425 9.0128 31.4 9.41667 32.4167 9.41667Z" stroke="black" strokeWidth="1.91667" strokeLinecap="round" strokeLinejoin="round"/>
<path d="M32.4167 22.8333C33.4334 22.8333 34.4084 22.4294 35.1273 21.7105C35.8462 20.9916 36.25 20.0166 36.25 19C36.25 17.9833 35.8462 17.0083 35.1273 16.2894C34.4084 15.5705 33.4334 15.1666 32.4167 15.1666C31.4 15.1666 30.425 15.5705 29.7061 16.2894C28.9872 17.0083 28.5834 17.9833 28.5834 19C28.5834 20.0166 28.9872 20.9916 29.7061 21.7105C30.425 22.4294 31.4 22.8333 32.4167 22.8333Z" stroke="black" strokeWidth="1.91667" strokeLinecap="round" strokeLinejoin="round"/>
<path d="M32.4167 36.25C33.4334 36.25 34.4084 35.8462 35.1273 35.1273C35.8462 34.4084 36.25 33.4334 36.25 32.4167C36.25 31.4 35.8462 30.425 35.1273 29.7061C34.4084 28.9872 33.4334 28.5834 32.4167 28.5834C31.4 28.5834 30.425 28.9872 29.7061 29.7061C28.9872 30.425 28.5834 31.4 28.5834 32.4167C28.5834 33.4334 28.9872 34.4084 29.7061 35.1273C30.425 35.8462 31.4 36.25 32.4167 36.25Z" stroke="black" strokeWidth="1.91667" strokeLinecap="round" strokeLinejoin="round"/>
<path d="M28.5834 32.4167H17.0834V5.58337H28.5834" stroke="black" strokeWidth="1.91667" strokeLinecap="round" strokeLinejoin="round"/>
<path d="M9.41663 19H28.5833" stroke="black" strokeWidth="1.91667" strokeLinecap="round" strokeLinejoin="round"/>
</svg>
