<svg width="44" height="40" viewBox="0 0 44 40" fill="none" xmlns="http://www.w3.org/2000/svg">
<path d="M35.8958 13.2361C35.4367 13.0797 34.974 12.934 34.5082 12.7991C34.5848 12.4829 34.6557 12.1666 34.7209 11.8504C35.7732 6.73671 35.0851 2.61971 32.7391 1.26271C30.4928 -0.0367937 26.8089 1.31829 23.0925 4.55937C22.7283 4.87946 22.3699 5.20912 22.0192 5.54837C21.7847 5.32243 21.5451 5.10195 21.3004 4.88712C17.4057 1.41987 13.5034 -0.0387101 11.1612 1.32212C8.913 2.62546 8.246 6.49712 9.19283 11.3405C9.28675 11.8197 9.39217 12.2989 9.511 12.7723C8.959 12.9295 8.42425 13.0981 7.91442 13.2745C3.35083 14.8691 0.4375 17.3704 0.4375 19.9636C0.4375 22.6431 3.56742 25.3303 8.32267 26.9595C8.70792 27.0879 9.09892 27.2105 9.49183 27.3236C9.36359 27.8345 9.25046 28.349 9.15258 28.8665C8.25367 33.6275 8.95517 37.4072 11.1957 38.7029C13.5111 40.0407 17.3962 38.6645 21.1816 35.3506C21.4806 35.088 21.7815 34.812 22.0805 34.5207C22.4581 34.8849 22.8472 35.2414 23.2497 35.5845C26.9143 38.747 30.533 40.0235 32.7717 38.724C35.0851 37.3823 35.8383 33.319 34.8608 28.3797C34.7842 28.0021 34.6998 27.6169 34.6021 27.224C34.8743 27.1435 35.1426 27.061 35.4032 26.9748C40.3444 25.3322 43.5644 22.6776 43.5644 19.9655C43.5625 17.3589 40.5533 14.8442 35.8958 13.238V13.2361ZM24.3057 5.95279C27.4874 3.17362 30.464 2.07921 31.8191 2.86312C33.2642 3.69687 33.8258 7.06254 32.9193 11.4766C32.8598 11.7641 32.7947 12.0516 32.7257 12.3372C30.8257 11.9046 28.899 11.5992 26.9584 11.423C25.8474 9.82264 24.6294 8.29925 23.3129 6.86321C23.6349 6.55079 23.9646 6.24796 24.3038 5.95279H24.3057ZM13.1699 22.1793C13.9584 23.7046 14.8187 25.1917 15.7478 26.6355C14.4127 26.4905 13.0859 26.2769 11.7727 25.9954C12.1761 24.7011 12.6411 23.4276 13.1699 22.1793ZM13.1699 17.8361C12.6332 16.5615 12.1752 15.3061 11.8014 14.0967C13.0933 13.8107 14.3981 13.5869 15.7114 13.4259C14.7938 14.8546 13.947 16.3264 13.1699 17.8361ZM14.1513 20.0077C15.287 17.6394 16.5991 15.3598 18.0766 13.1882C20.6929 12.9906 23.3205 12.9906 25.9368 13.1882C26.669 14.273 27.3609 15.3809 28.0145 16.5136C28.6681 17.6445 29.2891 18.8021 29.8737 19.9828C29.2967 21.1711 28.6777 22.3365 28.0202 23.4807C27.3667 24.6173 26.6786 25.7328 25.9522 26.8253C24.6738 26.9154 23.3474 26.9652 22 26.9652C20.6526 26.9652 19.3531 26.923 18.0958 26.8406C16.6093 24.6658 15.2894 22.3816 14.1474 20.0077H14.1513ZM29.6149 24.4026C30.0481 23.6494 30.4659 22.8846 30.8646 22.1122C31.4127 23.3542 31.8958 24.623 32.3136 25.9149C30.9853 26.2139 29.6417 26.4439 28.2886 26.601C28.7447 25.8785 29.1875 25.1444 29.6149 24.4026ZM30.8473 17.838C30.4494 17.0805 30.0353 16.3315 29.6053 15.5917C29.1875 14.8634 28.7505 14.1408 28.2943 13.4297C29.6705 13.6041 30.9911 13.836 32.2273 14.1197C31.8299 15.3815 31.3693 16.6225 30.8473 17.838ZM22.0192 8.18379C22.9162 9.16512 23.7633 10.1886 24.5568 11.2543C22.8583 11.1734 21.157 11.1734 19.4585 11.2543C20.2613 10.1895 21.1159 9.16475 22.0192 8.18379ZM12.087 2.91679C13.5283 2.07921 16.7196 3.27712 20.0833 6.26521C20.298 6.45687 20.5146 6.65812 20.7292 6.86512C19.4067 8.30071 18.1801 9.82254 17.0588 11.421C15.123 11.5955 13.2006 11.8964 11.3031 12.32C11.1938 11.8791 11.0942 11.4345 11.006 10.9879C10.1933 6.83446 10.7319 3.70454 12.087 2.91871V2.91679ZM9.9825 25.545C9.62509 25.443 9.27039 25.3318 8.91875 25.2115C6.81617 24.4927 5.07967 23.5535 3.8875 22.5339C2.81992 21.6177 2.2775 20.7035 2.2775 19.9636C2.2775 18.392 4.62158 16.3833 8.52583 15.0225C9.0165 14.85 9.511 14.6966 10.0093 14.5529C10.5901 16.4178 11.2916 18.2405 12.1119 20.0115C11.2822 21.8074 10.5696 23.6559 9.9825 25.545ZM19.9683 33.9591C18.2932 35.4254 16.618 36.4661 15.1383 36.9894C13.812 37.459 12.754 37.4724 12.1157 37.1044C10.7549 36.3185 10.1895 33.2825 10.96 29.2096C11.052 28.7305 11.1574 28.2513 11.2763 27.7721C13.1929 28.1861 15.1326 28.4679 17.0876 28.6155C18.2197 30.2224 19.456 31.7532 20.7887 33.1982C20.5203 33.4608 20.2462 33.7138 19.9683 33.9591ZM22.0728 31.8738C21.1575 30.8792 20.2914 29.8404 19.4777 28.7611C21.1861 28.8266 22.8965 28.8241 24.6047 28.7535C23.8137 29.8359 22.968 30.8774 22.0709 31.8738H22.0728ZM33.2585 34.4421C33.0017 35.8298 32.4861 36.7555 31.8478 37.1255C30.487 37.9151 27.5813 36.8897 24.4476 34.1853C24.0779 33.8653 23.7162 33.5361 23.3628 33.1982C24.6695 31.7477 25.8771 30.2109 26.9776 28.5982C28.9428 28.4313 30.8941 28.129 32.8177 27.6935C32.9058 28.05 32.9825 28.3989 33.0515 28.74C33.4828 30.925 33.5441 32.8992 33.2585 34.4421ZM34.8225 25.221C34.5868 25.2977 34.3433 25.3744 34.098 25.4491C33.4946 23.5764 32.7645 21.7469 31.913 19.9732C32.7333 18.2233 33.4348 16.4197 34.0137 14.5778C34.4545 14.7062 34.8819 14.8404 35.2959 14.9841C39.2864 16.3603 41.7206 18.3958 41.7206 19.9636C41.7206 21.635 39.0909 23.8027 34.8225 25.221Z" fill="#00D8FF"/>
<path d="M22 23.818C22.5173 23.8358 23.0329 23.7494 23.5162 23.5641C23.9995 23.3787 24.4407 23.0982 24.8134 22.739C25.1862 22.3799 25.4831 21.9496 25.6863 21.4735C25.8895 20.9975 25.9951 20.4854 25.9966 19.9678C25.9982 19.4502 25.8957 18.9375 25.6953 18.4603C25.4949 17.983 25.2006 17.5509 24.83 17.1895C24.4593 16.8282 24.0199 16.545 23.5377 16.3568C23.0555 16.1686 22.5404 16.0792 22.023 16.0938C21.0195 16.1221 20.0665 16.5397 19.3655 17.2583C18.6646 17.9769 18.2708 18.94 18.2676 19.9439C18.2644 20.9477 18.6519 21.9134 19.3482 22.6365C20.0445 23.3596 20.9948 23.7833 21.9981 23.818H22Z" fill="#00D8FF"/>
</svg>
