<svg width="114" height="149" viewBox="0 0 114 149" fill="none" xmlns="http://www.w3.org/2000/svg">
<path d="M80.1001 31.9C69.7001 21.5 59.7001 11.5 56.8001 0.300049C53.8001 11.5 43.9001 21.4 33.5001 31.9C17.9001 47.5 0.100098 65.2 0.100098 91.8C0.100098 123.1 25.5001 148.5 56.8001 148.5C88.1001 148.5 113.5 123.1 113.5 91.8C113.5 65.2 95.7001 47.5 80.1001 31.9ZM24.2001 105C20.7001 104.9 7.9001 82.8001 31.7001 59.2001L47.5001 76.4C48.0001 76.9 48.0001 77.8 47.5001 78.3L47.4001 78.4C43.6001 82.3 27.6001 98.3 25.6001 103.9C25.1001 105 24.5001 105 24.2001 105ZM56.8001 134.1C46.0001 134.1 37.3001 125.4 37.3001 114.6C37.4001 109.9 39.1001 105.3 42.2001 101.7C45.7001 97.4001 56.8001 85.3 56.8001 85.3C56.8001 85.3 67.8001 97.6001 71.4001 101.7C74.6001 105.2 76.3001 109.9 76.3001 114.6C76.3001 125.4 67.5001 134.1 56.8001 134.1ZM94.1001 102.5C93.7001 103.4 92.7001 105 91.4001 105C89.1001 105.1 88.9001 103.9 87.2001 101.4C83.5001 95.9 51.0001 61.9 44.9001 55.4C39.6001 49.6 44.1001 45.6 46.3001 43.4C49.0001 40.7 56.8001 32.9 56.8001 32.9C56.8001 32.9 80.1001 55 89.7001 70C99.3001 85 96.1001 98.2 94.1001 102.5Z" fill="#009CDE"/>
</svg>
