<svg width="42" height="42" viewBox="0 0 42 42" fill="none" xmlns="http://www.w3.org/2000/svg">
<rect x="1" y="1" width="40" height="40" fill="black"/>
<path d="M0.875 0.875V41.125H41.125V0.875H0.875ZM22.4375 32.1416C22.4375 36.0592 20.1241 37.9683 16.7737 37.9683C13.7454 37.9683 11.9897 36.4023 11.1004 34.5106L14.1786 32.6457C14.7727 33.6998 15.2232 34.5911 16.5208 34.5911C17.5979 34.5911 18.4834 34.1062 18.4834 32.2144V19.5625H22.4375V32.1416ZM31.3634 37.8782C27.8521 37.8782 25.5827 36.295 24.4749 34.1062L27.5588 32.3198C28.3677 33.6443 29.4238 34.5278 31.2868 34.5278C32.8546 34.5278 33.765 33.834 33.765 32.753C33.765 31.4554 32.8258 30.9973 31.097 30.2364L30.1521 29.8301C27.4227 28.6705 25.6134 27.2119 25.6134 24.1299C25.6134 21.2933 27.7735 19.2232 31.1526 19.2232C33.5561 19.2232 35.2849 19.9708 36.5288 22.1577L33.5772 24.0552C32.9293 22.8937 32.2298 22.4375 31.1468 22.4375C30.039 22.4375 29.3356 23.1409 29.3356 24.0552C29.3356 25.1898 30.039 25.6479 31.6605 26.3513L32.6054 26.7558C35.8216 28.1358 37.6309 29.5407 37.6309 32.7012C37.6309 36.1052 34.9572 37.8782 31.3634 37.8782Z" fill="#EFD81D"/>
</svg>
