<svg width="302" height="301" viewBox="0 0 302 301" fill="none" xmlns="http://www.w3.org/2000/svg">
<path d="M98.1001 230.7C100.5 229.6 102.9 228.7 105.4 227.7C108.2 226.7 111 225.7 113.8 224.8C117.3 223.7 120.9 222.8 124.5 222C129.4 221 134.3 220.2 139.2 219.7C136.4 228.4 133.4 237.1 130 245.7C130.1 247.4 130.2 249 130.3 250.7C137 249.4 143.9 248.7 151 248.7C158.1 248.7 165 249.4 171.7 250.7C171.7 249 171.8 247.3 172 245.7C168.7 237.1 165.6 228.4 162.8 219.7C167.7 220.2 172.7 220.9 177.5 222C181.1 222.8 184.6 223.7 188.2 224.8C191 225.7 193.8 226.6 196.6 227.7C199.1 228.6 201.5 229.6 203.9 230.7C220.9 238.3 236.4 249.5 249.1 264.1C281 236.6 301.2 195.9 301.2 150.4C301.2 67.4999 234 0.199951 151 0.199951C68.1 0.199951 0.800049 67.3999 0.800049 150.4C0.800049 195.8 21 236.5 52.9 264.1C65.6 249.5 81.1001 238.3 98.1001 230.7Z" fill="#A0DBE8"/>
<path d="M108 257.9C115 254.8 122.5 252.4 130.2 250.9C130.2 249.2 130.1 247.5 129.9 245.9C133.2 237.3 136.3 228.6 139.1 219.9C134.2 220.4 129.2 221.1 124.4 222.2C120.8 223 117.3 223.9 113.7 225C110.9 225.9 108.1 226.8 105.3 227.9L116.2 230.6L108 257.9Z" fill="#525353"/>
<path d="M82.2 274C82.5 271.2 82.6001 268.4 82.6001 265.5C82.6001 263.8 84 262.4 85.7 262.4H88.4L98 230.6C81 238.2 65.5 249.4 52.8 264C59.8 270.1 67.4 275.5 75.4 280.2C77.7 278.1 79.9 276 82.2 274Z" fill="#525353"/>
<path d="M203.8 230.7L213.4 262.5H216.1C217.8 262.5 219.2 263.9 219.2 265.6C219.2 268.5 219.4 271.3 219.6 274.1C221.9 276.1 224.2 278.1 226.3 280.3C234.4 275.6 241.9 270.2 248.9 264.1C236.3 249.5 220.8 238.3 203.8 230.7Z" fill="#525353"/>
<path d="M185.5 230.4L196.4 227.7C193.6 226.7 190.8 225.7 188 224.8C184.5 223.7 180.9 222.8 177.3 222C172.4 221 167.5 220.2 162.6 219.7C165.4 228.4 168.4 237.1 171.8 245.7C171.7 247.4 171.6 249 171.5 250.7C179.3 252.2 186.7 254.6 193.7 257.7L185.5 230.4Z" fill="#525353"/>
<path d="M150.9 262.5H172.1C171.7 258.6 171.5 254.7 171.6 250.9C164.9 249.6 158 248.9 150.9 248.9C143.8 248.9 136.9 249.6 130.2 250.9C130.3 254.8 130.1 258.6 129.7 262.5H150.9Z" fill="black"/>
<path d="M75.5 280.2C77.2 281.2 79 282.2 80.8 283.2C81.4 280.2 81.9 277.1 82.2 274C79.9 276 77.7 278.1 75.5 280.2Z" fill="black"/>
<path d="M106.6 262.5H129.8C130.2 258.6 130.4 254.7 130.3 250.9C122.5 252.4 115.1 254.8 108.1 257.9L106.6 262.5Z" fill="black"/>
<path d="M219.7 274C220 277.1 220.5 280.2 221.1 283.2C222.9 282.3 224.6 281.3 226.4 280.2C224.2 278.1 222 276 219.7 274Z" fill="black"/>
<path d="M195.3 262.5L193.9 257.9C186.9 254.8 179.4 252.4 171.7 250.9C171.6 254.8 171.8 258.6 172.2 262.5H195.3Z" fill="black"/>
<path d="M106.6 262.5L108 257.9L116.3 230.4L105.4 227.7C102.9 228.6 100.5 229.6 98.1 230.7L88.5 262.5H98.8H106.6Z" fill="#AA9678"/>
<path d="M193.9 257.9L195.3 262.5H203.1H213.4L203.8 230.7C201.4 229.6 199 228.7 196.5 227.7L185.6 230.4L193.9 257.9Z" fill="#AA9678"/>
<path d="M88.8 268.9C88.9 268.8 89.0001 268.8 89.1001 268.7H88.8C88.8 268.7 88.8 268.8 88.8 268.9Z" fill="#C0B098"/>
<path d="M150.9 268.7H128.8H104.7H89.1C89 268.8 88.9 268.8 88.8 268.9C88.6 274.8 87.8 280.5 86.5 286.1C106 295.4 127.8 300.6 150.9 300.6V268.7Z" fill="#C0B098"/>
<path d="M213.1 268.7H212.8C212.9 268.8 213 268.8 213.1 268.9C213.1 268.8 213.1 268.7 213.1 268.7Z" fill="#AA9678"/>
<path d="M212.8 268.7H197.2H173H150.9V300.6C173.9 300.6 195.8 295.4 215.3 286.1C214 280.5 213.2 274.7 213 268.9C213 268.8 212.9 268.7 212.8 268.7Z" fill="#AA9678"/>
<path d="M219.7 274C219.4 271.2 219.3 268.4 219.3 265.5C219.3 263.8 217.9 262.4 216.2 262.4H213.5H203H195.2H172H150.8H129.6H106.4H98.6H88.3H85.6C83.9 262.4 82.5 263.8 82.5 265.5C82.5 268.4 82.3 271.2 82.1 274C81.8 277.1 81.3 280.2 80.7 283.2C82.6 284.2 84.4999 285.2 86.3999 286.1C87.6999 280.5 88.5 274.7 88.7 268.9C88.7 268.8 88.7 268.8 88.7 268.7H89H104.6H128.7H150.8H173H197.1H212.7H213C213 268.8 213 268.8 213 268.9C213.2 274.8 214 280.5 215.3 286.1C217.2 285.2 219.1 284.2 221 283.2C220.4 280.2 220 277.1 219.7 274Z" fill="#8B7460"/>
<path d="M193.9 241C193.4 240.5 193 239.9 192.5 239.3C193 240 193.5 240.5 193.9 241Z" fill="#525353"/>
<path d="M250.9 117C249.6 115.2 248.3 113.6 247 112.2C246.4 111.5 245.8 110.9 245.2 110.3C245 110.1 244.7 109.9 244.5 109.7C244.1 109.3 243.7 109 243.3 108.7V122.7L248.6 147.2C248.7 147.4 248.7 147.6 248.8 147.8L252.5 152H256.4C256.4 151.6 256.4 151.3 256.4 150.9C256.4 139.3 254.5 128.2 251.1 117.8C251 117.4 251 117.2 250.9 117Z" fill="#BBBCBD"/>
<path d="M249.2 149.5V149.6C249.2 149.6 249.2 149.6 249.2 149.7C249.3 150.3 249.3 150.9 249.3 151.5C249.3 151.6 249.3 151.7 249.3 151.8C249.3 151.9 249.3 152 249.3 152.1C249.3 152.7 249.3 153.3 249.2 153.8V153.9V154C249.1 154.6 249 155.2 248.9 155.8L252.6 151.7L248.9 147.5C249 148.2 249.1 148.8 249.2 149.5Z" fill="#676A6A"/>
<path d="M249.1 154.2C249.1 154.1 249.1 154.1 249.1 154C249.2 153.4 249.2 152.8 249.2 152.3C249.2 152.2 249.2 152 249.2 151.9C249.2 151.8 249.2 151.7 249.2 151.5C249.2 150.9 249.2 150.3 249.1 149.7C249.1 149.6 249.1 149.6 249.1 149.5C249 148.9 248.9 148.3 248.8 147.7C248.7 147.5 248.7 147.3 248.6 147.1C248.2 145.9 247.8 144.9 247.2 144C247.1 143.9 247 143.8 247 143.7C246.8 143.5 246.7 143.3 246.5 143.1C246.3 142.8 246 142.6 245.7 142.4C245.6 142.3 245.5 142.3 245.4 142.2C245.2 142 244.9 141.9 244.7 141.8C244.6 141.8 244.5 141.7 244.4 141.7C244.1 141.6 243.7 141.5 243.3 141.5C242.9 141.5 242.6 141.6 242.2 141.7C242.1 141.7 242 141.8 241.9 141.8C241.7 141.9 241.4 142 241.2 142.2C241.1 142.3 241 142.3 240.9 142.4C240.6 142.6 240.4 142.9 240.1 143.1C239.9 143.3 239.8 143.5 239.6 143.7C239.5 143.8 239.4 143.9 239.4 144C238.8 144.9 238.3 145.9 238 147.1V147.2C237.8 147.7 237.7 148.3 237.6 148.9C237.6 149.1 237.5 149.2 237.5 149.4C237.4 150.1 237.4 150.7 237.3 151.4C237.3 151.5 237.3 151.6 237.3 151.7C237.3 157.4 240 162.1 243.3 162.1C243.9 162.1 244.4 161.9 245 161.7C245.1 161.7 245.2 161.6 245.3 161.6C245.5 161.5 245.7 161.3 245.9 161.2C246 161.1 246.1 161 246.2 160.9C246.5 160.7 246.7 160.4 247 160.1C247.2 159.9 247.3 159.7 247.5 159.4C247.6 159.2 247.7 159.1 247.8 158.9C248 158.6 248.1 158.3 248.3 157.9C248.4 157.8 248.4 157.7 248.5 157.5C248.7 157 248.8 156.5 249 156C249 155.4 249.1 154.8 249.1 154.2ZM243.5 150.4C242.2 150.4 241.2 148.7 241.2 146.5C241.2 144.4 242.2 142.6 243.5 142.6C244.8 142.6 245.8 144.3 245.8 146.5C245.8 148.7 244.7 150.4 243.5 150.4Z" fill="black"/>
<path d="M243.5 150.4C244.77 150.4 245.8 148.654 245.8 146.5C245.8 144.346 244.77 142.6 243.5 142.6C242.23 142.6 241.2 144.346 241.2 146.5C241.2 148.654 242.23 150.4 243.5 150.4Z" fill="white"/>
<path d="M237.9 147.1C238.3 145.9 238.7 144.9 239.3 144C239.4 143.9 239.5 143.8 239.5 143.7C239.7 143.5 239.8 143.3 240 143.1C240.2 142.8 240.5 142.6 240.8 142.4C240.9 142.3 241 142.3 241.1 142.2C241.3 142 241.6 141.9 241.8 141.8C241.9 141.8 242 141.7 242.1 141.7C242.4 141.6 242.8 141.5 243.2 141.5C243.6 141.5 243.9 141.6 244.3 141.7C244.4 141.7 244.5 141.8 244.6 141.8C244.8 141.9 245.1 142 245.3 142.2C245.4 142.3 245.5 142.3 245.6 142.4C245.9 142.6 246.1 142.9 246.4 143.1C246.6 143.3 246.7 143.5 246.9 143.7C247 143.8 247.1 143.9 247.1 144C247.7 144.9 248.2 145.9 248.5 147.1L243.2 122.6L237.9 147.1Z" fill="#909393"/>
<path d="M172.4 151.6C172.4 151.1 172.4 150.6 172.3 150.1C172.2 149.6 172.2 149.2 172.1 148.7C172 148.2 171.9 147.8 171.7 147.4C171.6 147 171.4 146.5 171.2 146.1C171 145.7 170.8 145.3 170.6 144.9C169.9 143.7 169.1 142.6 168.1 141.7C166.8 140.5 165.3 139.5 163.7 138.8C162.9 138.5 162 138.2 161.2 138C161.2 138 161.2 138 161.1 138C160.2 137.8 159.3 137.7 158.4 137.7C157.5 137.7 156.6 137.8 155.7 138H155.6C154.7 138.2 153.9 138.4 153.1 138.7C153.1 138.7 153.1 138.7 153 138.7C152.2 139 151.4 139.4 150.7 139.9C150 140.4 149.3 140.9 148.7 141.5H148.6C147.6 142.5 146.7 143.6 146 144.8C145.8 145.2 145.6 145.6 145.4 146C145.4 146 145.4 146.1 145.3 146.1C145.1 146.5 145 146.8 144.9 147.2C144.9 147.3 144.8 147.3 144.8 147.4C144.7 147.8 144.6 148.1 144.5 148.5C144.5 148.6 144.4 148.7 144.4 148.8C144.3 149.2 144.3 149.5 144.2 149.9C144.2 150 144.2 150.1 144.1 150.2C144.1 150.7 144 151.2 144 151.7C144 152.6 144.1 153.5 144.3 154.4C144.3 154.4 144.3 154.4 144.3 154.5C144.5 155.4 144.7 156.2 145.1 157.1C145.8 158.7 146.8 160.2 148 161.5C149 162.5 150.1 163.4 151.3 164.1C151.7 164.3 152.1 164.5 152.5 164.7H152.6C153 164.9 153.4 165 153.7 165.1C153.8 165.1 153.8 165.1 153.9 165.2C154.3 165.3 154.6 165.4 155 165.5C155.1 165.5 155.2 165.6 155.3 165.6C155.7 165.7 156 165.7 156.4 165.8C156.5 165.8 156.6 165.8 156.7 165.9C157.2 165.9 157.7 166 158.2 166C160.2 166 162 165.6 163.7 164.9C164.5 164.5 165.3 164.1 166.1 163.6C167.6 162.6 168.9 161.3 169.9 159.8C170.4 159 170.8 158.2 171.2 157.4C171.9 155.7 172.3 153.8 172.3 151.9V151.8C172.4 151.6 172.4 151.6 172.4 151.6ZM158.3 149.9C155.4 149.9 153 147.5 153 144.6C153 141.7 155.4 139.3 158.3 139.3C161.2 139.3 163.6 141.7 163.6 144.6C163.6 147.5 161.2 149.9 158.3 149.9Z" fill="black"/>
<path d="M158.3 149.9C161.227 149.9 163.6 147.527 163.6 144.6C163.6 141.673 161.227 139.3 158.3 139.3C155.373 139.3 153 141.673 153 144.6C153 147.527 155.373 149.9 158.3 149.9Z" fill="white"/>
<path d="M148.5 141.5L158.3 111.6C158.3 111.6 158.3 109.8 158.3 108.1C158.3 107.6 158.3 107.1 158.3 106.7C158.3 106.5 158.3 106.4 158.3 106.3C158.3 106.1 158.3 105.9 158.3 105.7C158.3 105.6 158.3 105.4 158.3 105.3C158.3 105.2 158.3 105 158.3 104.9C158.3 104.8 158.3 104.7 158.3 104.7C158.3 104.6 158.3 104.6 158.3 104.6C152.9 103.5 147.3 102.9 141.6 102.9C139.7 102.9 137.8 103 135.9 103.1C135.6 103.1 135.4 103.1 135.1 103.2C125.3 103.9 115.7 106.5 106.8 110.6C99.2 114.1 92 118.7 85.7 124.1C84 125.6 82.3 127.1 80.7 128.7C80.4 129 80.1 129.3 79.8 129.6C78.3 131.1 76.7999 132.7 75.3999 134.3C75.0999 134.7 74.8 135 74.5 135.4C73.1 137.1 71.6999 138.8 70.3999 140.5C70.2999 140.6 70.2 140.8 70.1 140.9C68.9 142.6 67.7 144.3 66.5 146.1C66.3 146.4 66 146.8 65.8 147.1C64.9 148.6 64 150.1 63.2 151.6H107.5H107.6L148.5 141.5Z" fill="#BBBCBD"/>
<path d="M186 138.2C186.1 137 186.2 135.9 186.2 134.7C186.3 133.1 186.3 131.6 186.4 130C186.4 128.8 186.4 127.6 186.4 126.3C186.4 125.9 186.4 125.6 186.4 125.2C186.4 122 186.2 118.9 186.1 115.7C186.1 115.7 186 115.7 186 115.6C186 115.6 185.9 115.6 185.9 115.5C185.3 115.2 183.9 114.4 182.6 113.6H182.5C182.2 113.4 181.9 113.2 181.6 113.1C181.4 113 181.2 112.8 181 112.7L180.9 112.6C180.7 112.5 180.5 112.4 180.4 112.3C178.4 111.2 176.3 110.3 174.2 109.4C169.2 107.3 162.4 105.4 158.5 104.5V107.2V107.8V108C158.5 109.8 158.5 111.5 158.5 111.5L168.2 141.3C169.2 142.2 170.1 143.3 170.7 144.5C170.9 144.9 171.1 145.3 171.3 145.7C171.5 146.1 171.7 146.5 171.8 147C171.9 147.4 172.1 147.9 172.2 148.3C172.3 148.8 172.4 149.2 172.4 149.7C172.5 150.2 172.5 150.7 172.5 151.2V151.3H184.3C185.1 147 185.7 142.6 186 138.2C186 138.3 186 138.4 186 138.2Z" fill="#E2DDDB"/>
<path d="M172.5 194.2C175.2 191.5 177.7 189 180.1 186.5C181.5 185 182.9 183.5 184.3 182.1C194.2 171.4 201.4 161.3 205.8 148.4C205.9 148.1 206 147.7 206.1 147.2C206.1 147.1 206.1 147.1 206.1 147C206.2 146.5 206.3 146 206.4 145.4C206.4 145 206.5 144.6 206.5 144.2C205.4 138.6 203.3 133.1 201.4 127.7C201.4 127.7 201.4 127.7 201.4 127.8C201.4 127.8 201.4 127.8 201.3 127.7C200.9 127.4 200.6 127 200.2 126.7C199.1 125.7 198 124.7 196.8 123.7C193.3 120.8 189.7 118.1 185.9 115.8C186.1 119 186.2 122.1 186.2 125.3C186.2 125.7 186.2 126 186.2 126.4C186.2 127.6 186.2 128.8 186.2 130.1C186.2 131.7 186.1 133.3 186 134.8C185.9 136 185.9 137.1 185.8 138.3C185.8 138.4 185.8 138.5 185.8 138.7C185.4 143.1 184.9 147.5 184.1 151.8L182.7 158.4C179.8 170.2 173.9 180.8 169.1 191.8C167.8 194.7 166.6 197.7 165.5 200.7C165.4 201 165.3 201.3 165.2 201.6C166.7 200 168.1 198.6 169.1 197.6C170.4 196.3 171.4 195.2 172.5 194.2Z" fill="#FBB040"/>
<path d="M148.6 141.5C149.2 140.9 149.9 140.4 150.6 139.9C151.3 139.4 152.1 139 152.9 138.7C152.9 138.7 152.9 138.7 153 138.7C153.8 138.4 154.6 138.1 155.5 138H155.6C156.5 137.8 157.4 137.7 158.3 137.7C159.2 137.7 160.1 137.8 161 138C161 138 161 138 161.1 138C162 138.2 162.8 138.4 163.6 138.8C165.2 139.5 166.7 140.4 168 141.7L158.3 111.9L148.6 141.5Z" fill="#909393"/>
<path d="M145.2 157.1C144.9 156.3 144.6 155.4 144.4 154.5C144.4 154.5 144.4 154.5 144.4 154.4C144.2 153.5 144.1 152.6 144.1 151.7C144.1 151.2 144.1 150.7 144.2 150.2C144.2 150.1 144.2 150 144.3 149.9C144.3 149.5 144.4 149.2 144.5 148.8C144.5 148.7 144.6 148.6 144.6 148.5C144.7 148.1 144.8 147.8 144.9 147.4C144.9 147.3 145 147.3 145 147.2C145.1 146.8 145.3 146.4 145.4 146.1C145.4 146.1 145.4 146 145.5 146C145.7 145.6 145.9 145.2 146.1 144.8C146.8 143.6 147.7 142.5 148.7 141.5L107.7 151.6H107.6L148.2 161.5C146.9 160.3 145.9 158.8 145.2 157.1Z" fill="#676A6A"/>
<path d="M237.4 149.4C237.4 149.2 237.5 149 237.5 148.9C237.6 148.3 237.7 147.7 237.9 147.2C237.9 147.1 237.9 147.1 237.9 147L243.2 122.5V108.5C238.8 104.9 234.2 102.9 229.3 102.9C223.1 102.9 217.4 106.3 213.1 110.5C208.4 115.1 204.8 120.9 201.8 126.7C201.7 127 201.5 127.2 201.4 127.5C202.3 128.3 203.2 129.1 204.1 129.9C206.1 131.7 208.1 133.6 210 135.5C210.9 136.4 211.8 137.3 212.7 138.2C213.6 139.2 214.6 140.1 215.5 141.1C216.7 142.4 217.9 143.6 219 144.9C219.5 145.4 220 146 220.5 146.5C221.9 148.1 223.3 149.6 224.7 151.2C224.9 151.4 225.1 151.6 225.2 151.7H237.3C237.3 151.6 237.3 151.5 237.3 151.4C237.3 150.8 237.3 150.1 237.4 149.4Z" fill="#E2DDDB"/>
<path d="M55.9 167.1C55.9 167 56 166.9 56 166.8C56.8 164.8 57.6 162.8 58.5 160.8C58.7 160.2 59 159.7 59.3 159.2C60 157.6 60.8001 156.1 61.6001 154.6C61.9001 154 62.2001 153.4 62.6001 152.7C62.8001 152.4 63 152 63.2 151.7C64.1 150.2 64.9 148.7 65.8 147.2C66 146.9 66.3 146.5 66.5 146.2C67.6 144.4 68.8001 142.7 70.1001 141C70.2001 140.9 70.3 140.7 70.4 140.6C71.7 138.8 73.1 137.1 74.5 135.5C74.8 135.1 75.1 134.8 75.4 134.4C76.8 132.8 78.3 131.2 79.8 129.7C80.1 129.4 80.4 129.1 80.7 128.8C82.3 127.2 83.9 125.7 85.7 124.2C92.4 101.6 113.1 85.1 137.5 85.1C147.3 85.1 157.1 87.9 165.5 93.1C174.1 98.4 181.1 106.1 185.6 115C185.6 115 185.6 115.1 185.7 115.1C185.8 115.3 185.9 115.5 186.1 115.8C189.9 118.1 193.5 120.8 197 123.7C198.2 124.7 199.3 125.7 200.4 126.7C200.8 127 201.1 127.4 201.5 127.7C201.6 127.4 201.7 127.2 201.9 126.9C205.3 105.2 214.9 89.5 226.2 89.5C234.7 89.5 242.3 98.4001 246.9 112.1V112.2C248.2 113.6 249.5 115.2 250.8 116.9C250.8 116.9 250.8 117 250.9 117C251 117.2 251 117.4 251.1 117.6L250.9 116.9C236.8 75.3001 197.5 45.3 151.1 45.3C92.9001 45.3 45.8 92.4001 45.8 150.6C45.8 162.1 47.6 173.1 51 183.4C51 183.4 51 183.4 51 183.3C51.7 180.2 52.5 177.1 53.4 174.1C54.2 171.7 55 169.4 55.9 167.1Z" fill="#525353"/>
<path d="M252.5 151.8L248.8 155.9C248.7 156.4 248.5 156.9 248.3 157.4C248.3 157.5 248.2 157.6 248.1 157.8C248 158.1 247.8 158.5 247.6 158.8C247.5 159 247.4 159.1 247.3 159.3C247.1 159.5 247 159.8 246.8 160C246.6 160.3 246.3 160.6 246 160.8C245.9 160.9 245.8 161 245.7 161.1C245.5 161.3 245.3 161.4 245.1 161.5C245 161.5 244.9 161.6 244.8 161.6C244.3 161.9 243.7 162 243.1 162C239.8 162 237.1 157.4 237.1 151.6H225C227.3 154.2 229.5 156.8 231.6 159.5L231.7 159.6C233.8 162.2 235.9 164.8 238 167.4C238.1 167.5 238.2 167.7 238.3 167.8C240.3 170.3 242.2 172.8 244.1 175.3C244.3 175.5 244.5 175.8 244.7 176C246.7 178.7 248.7 181.4 250.7 184C250.7 184 250.7 184 250.7 184.1C254.2 173.8 256.1 162.9 256.2 151.5L252.5 151.8Z" fill="white"/>
<path d="M135.1 103.1C135.4 103.1 135.6 103.1 135.9 103C137.8 102.9 139.7 102.8 141.6 102.8C147.3 102.8 152.9 103.4 158.3 104.5C158.3 104.5 158.3 104.5 158.3 104.6C158.3 104.6 158.3 104.7 158.3 104.8C158.3 104.9 158.3 105 158.3 105.2C158.3 105.3 158.3 105.4 158.3 105.6C158.3 105.8 158.3 106 158.3 106.2C158.3 106.3 158.3 106.5 158.3 106.6C158.3 106.8 158.3 107 158.3 107.2V104.5C162.1 105.4 168.9 107.3 174 109.4C176.1 110.3 178.2 111.3 180.2 112.3C180.3 112.3 180.5 112.4 180.7 112.6C180.7 112.6 180.8 112.6 180.8 112.7C181 112.8 181.2 112.9 181.4 113.1C181.7 113.3 182 113.4 182.3 113.6H182.4C183.7 114.3 185.1 115.2 185.7 115.5C185.8 115.5 185.8 115.6 185.8 115.6L185.9 115.7C185.8 115.5 185.7 115.3 185.5 115C185.5 115 185.5 114.9 185.4 114.9C180.9 105.9 173.8 98.2 165.3 93C156.9 87.9 147.1 85 137.3 85C112.9 85 92.2 101.5 85.5 124.1C91.9 118.6 99 114 106.6 110.6C115.7 106.4 125.4 103.9 135.1 103.1Z" fill="black"/>
<path d="M213.2 110.6C217.5 106.4 223.2 103 229.4 103C234.3 103 239 105 243.3 108.6C243.7 108.9 244.1 109.3 244.5 109.6C244.7 109.8 245 110 245.2 110.2C245.8 110.8 246.4 111.4 247 112.1V112C242.3 98.3001 234.8 89.4001 226.3 89.4001C215 89.4001 205.4 105 202 126.8C204.8 121 208.5 115.2 213.2 110.6Z" fill="black"/>
<path d="M113.4 248.9C114.4 249.3 115.3 249.6 116.3 249.9C127.2 253.7 138.9 255.8 151.1 255.8C165 255.8 178.3 253.1 190.4 248.2C191 247.9 191.7 247.7 192.3 247.4C193.3 247 194.4 246.5 195.4 246C196.3 245.6 197.2 245.2 198.1 244.7C197.9 244.7 197.7 244.8 197.5 244.8C193.7 245.2 190 245.3 186.3 244.7C164.6 241.6 159.8 231.1 160.5 220.3C158.9 219.4 157.4 218.4 155.7 217.2C139 205.1 129.1 192.2 129.1 192.2C129.1 192.2 142 202.1 161.2 209.6C161.6 209.8 162 209.9 162.4 210.1C163.3 207 164.4 204 165.3 201.4C165.4 201.1 165.5 200.8 165.6 200.5C166.7 197.5 167.9 194.5 169.2 191.6C174 180.6 179.9 169.9 182.8 158.2L184.2 151.6H172.4V151.7C172.4 153.7 172 155.5 171.3 157.2C170.9 158 170.5 158.9 170 159.6C169 161.1 167.7 162.4 166.2 163.4C165.4 163.9 164.6 164.3 163.8 164.7C162.1 165.4 160.2 165.8 158.3 165.8C157.8 165.8 157.3 165.8 156.8 165.7C156.7 165.7 156.6 165.7 156.5 165.6C156.1 165.6 155.8 165.5 155.4 165.4C155.3 165.4 155.2 165.3 155.1 165.3C154.7 165.2 154.4 165.1 154 165C153.9 165 153.9 165 153.8 164.9C153.4 164.8 153 164.6 152.7 164.5H152.6C152.2 164.3 151.8 164.1 151.4 163.9C150.2 163.2 149.1 162.4 148.1 161.3L107.5 151.4H63.1998C62.9998 151.7 62.7999 152.1 62.5999 152.4C62.2999 153 61.8999 153.6 61.5999 154.3C60.7999 155.8 59.9999 157.4 59.2999 158.9C58.9999 159.4 58.7998 160 58.4998 160.5C57.5998 162.5 56.7998 164.5 55.9998 166.5C55.9998 166.6 55.8998 166.7 55.8998 166.8C54.9998 169.1 54.1998 171.5 53.4998 173.9C52.5998 176.9 51.7999 180 51.0999 183.1C58.0999 204.4 71.5998 222.7 89.3998 235.5C89.8998 235.9 90.4998 236.2 90.9998 236.6C93.9998 238.7 97.0999 240.7 100.3 242.4C104.5 245 108.9 247.1 113.4 248.9Z" fill="white"/>
<path d="M186.1 216.1C185.9 217.2 185.8 218.3 185.8 219.4C185.7 221.3 185.9 223.2 186.2 224.9C186.4 226.1 186.6 227.2 186.9 228.3C187.4 229.9 187.9 231.4 188.6 232.8C189.3 234.2 190 235.5 190.7 236.6C190.9 237 191.2 237.4 191.4 237.7C191.8 238.2 192.1 238.7 192.5 239.2C193 239.8 193.5 240.4 193.9 240.9C195.8 243.1 197.4 244.3 197.4 244.3C197.4 244.3 197.4 244.3 197.4 244.4C197.4 244.5 197.4 244.6 197.5 244.7C197.7 244.7 197.9 244.6 198.1 244.6C202.8 244 207.5 242.7 212.2 241.1C214.6 240.2 217 239.3 219.3 238.3C220 238 220.7 237.6 221.4 237.3C245.5 225.6 265.7 205 265.7 205C235.5 219.9 205.8 219.3 186.1 216.1Z" fill="#9F2255"/>
<path d="M244.3 175.5C242.4 173 240.4 170.5 238.5 168C238.4 167.9 238.3 167.7 238.2 167.6C236.1 165 234 162.4 231.9 159.8L231.8 159.7C229.6 157 227.4 154.4 225.2 151.8C225.1 151.6 224.9 151.5 224.8 151.3C223.4 149.7 222 148.2 220.6 146.6C220.1 146.1 219.6 145.5 219.1 145C217.9 143.7 216.8 142.5 215.6 141.2C214.7 140.2 213.7 139.3 212.8 138.3C211.9 137.4 211 136.5 210.1 135.6C208.2 133.7 206.2 131.8 204.2 130C203.3 129.2 202.4 128.4 201.5 127.6C203.4 133.1 205.6 138.6 206.7 144.3C207 145.8 207.2 147.2 207.4 148.6C210.1 168.3 203.7 181.2 193.7 198.2C193 199.4 192.2 200.7 191.5 201.9C189.2 205.7 187.7 209.4 186.9 212.8C186.6 213.9 186.4 215 186.2 216.1C205.9 219.3 235.5 219.9 265.8 205C265.8 205 259.9 196.3 250.9 184.3C248.9 181.6 246.9 178.9 244.9 176.3C244.7 176 244.5 175.7 244.3 175.5Z" fill="#E2066F"/>
<path d="M197.4 244.5C197.4 244.5 195.9 243.3 193.9 241.1C193.4 240.6 193 240 192.5 239.4C192.1 238.9 191.8 238.4 191.4 237.9C191.2 237.5 190.9 237.2 190.7 236.8C190 235.6 189.3 234.4 188.6 233C188 231.6 187.4 230.1 186.9 228.5C186.6 227.4 186.3 226.3 186.2 225.1C185.9 223.4 185.8 221.5 185.8 219.6C185.8 218.5 185.9 217.4 186.1 216.3C186.3 215.2 186.5 214.1 186.8 213C187.7 209.6 189.1 206 191.4 202.1C192.1 200.8 192.9 199.6 193.6 198.4C203.6 181.4 210 168.6 207.3 148.8C207.1 147.4 206.9 145.9 206.6 144.5C206.5 145.5 206.3 146.4 206.1 147.1C206.1 147.2 206.1 147.2 206.1 147.3C206 147.8 205.9 148.2 205.8 148.5C201.4 161.4 194.2 171.5 184.3 182.2C183 183.7 181.6 185.1 180.1 186.6C177.7 189.1 175.1 191.7 172.5 194.3C171.4 195.4 170.3 196.4 169.2 197.5C168.2 198.5 166.8 199.9 165.3 201.5C164.4 204.1 163.3 207.1 162.4 210.2C162 210 161.6 209.9 161.2 209.7C142 202.3 129.1 192.3 129.1 192.3C129.1 192.3 139 205.2 155.7 217.3C157.3 218.5 158.9 219.5 160.5 220.4C159.8 231.3 164.6 241.7 186.3 244.8C190 245.3 193.7 245.3 197.5 244.9C197.5 244.7 197.4 244.6 197.4 244.5Z" fill="black"/>
</svg>
