<svg className="icon_time" width="46" height="46" viewBox="0 0 46 46" fill="none" xmlns="http://www.w3.org/2000/svg">
<path d="M23 40.25C25.2653 40.25 27.5084 39.8038 29.6013 38.9369C31.6942 38.07 33.5958 36.7994 35.1976 35.1976C36.7994 33.5958 38.07 31.6942 38.9369 29.6013C39.8038 27.5084 40.25 25.2653 40.25 23C40.25 20.7347 39.8038 18.4916 38.9369 16.3987C38.07 14.3058 36.7994 12.4042 35.1976 10.8024C33.5958 9.2006 31.6942 7.92997 29.6013 7.06308C27.5084 6.19618 25.2653 5.75 23 5.75C18.425 5.75 14.0374 7.56741 10.8024 10.8024C7.56741 14.0374 5.75 18.425 5.75 23C5.75 27.575 7.56741 31.9626 10.8024 35.1976C14.0374 38.4326 18.425 40.25 23 40.25Z" stroke="black" strokeWidth="2" strokeLinecap="round" strokeLinejoin="round"/>
<path d="M23 13.4167V23L28.75 28.75" stroke="black" strokeWidth="2" strokeLinecap="round" strokeLinejoin="round"/>
</svg>
