<svg width="46" height="46" viewBox="0 0 46 46" fill="none" xmlns="http://www.w3.org/2000/svg">
<rect width="46" height="46" fill="#EC6F01"/>
<path d="M32.5834 11.5V20.125C29.7505 20.125 27.2071 21.3517 25.4534 23.3067C24.4837 24.382 23.7713 25.6639 23.3702 27.0553C22.9691 28.4466 22.8897 29.9109 23.138 31.3375C23.3799 32.7362 23.9292 34.0637 24.7462 35.2244C25.5632 36.3851 26.6276 37.3501 27.8626 38.0497C25.3115 38.8221 21.9248 39.2917 18.2084 39.2917C10.2695 39.2917 3.83337 37.145 3.83337 34.5V11.5" fill="white"/>
<path d="M32.5834 11.5V20.125C29.7505 20.125 27.2071 21.3517 25.4534 23.3067C24.4837 24.382 23.7713 25.6639 23.3702 27.0553C22.9691 28.4466 22.8897 29.9109 23.138 31.3375C23.3799 32.7362 23.9292 34.0637 24.7462 35.2244C25.5632 36.3851 26.6276 37.3501 27.8626 38.0497C25.3115 38.8221 21.9248 39.2917 18.2084 39.2917C10.2695 39.2917 3.83337 37.145 3.83337 34.5V11.5" stroke="#EC6F01" strokeWidth="1.91667" strokeLinecap="round" strokeLinejoin="round"/>
<path d="M32.5834 11.5C32.5834 14.145 26.1472 16.2917 18.2084 16.2917C10.2695 16.2917 3.83337 14.145 3.83337 11.5C3.83337 8.85504 10.2695 6.70837 18.2084 6.70837C26.1472 6.70837 32.5834 8.85504 32.5834 11.5Z" fill="white" stroke="#EC6F01" strokeWidth="1.91667" strokeLinecap="round" strokeLinejoin="round"/>
<path d="M3.83337 26.8334C3.83337 29.4784 10.2695 31.625 18.2084 31.625C19.9391 31.625 21.6009 31.5235 23.138 31.3375" stroke="#EC6F01" strokeWidth="1.91667" strokeLinecap="round" strokeLinejoin="round"/>
<path d="M3.83337 19.1666C3.83337 21.8116 10.2695 23.9583 18.2084 23.9583C20.8495 23.9583 23.3259 23.7206 25.4534 23.3066" stroke="#EC6F01" strokeWidth="1.91667" strokeLinecap="round" strokeLinejoin="round"/>
<path d="M42.1667 29.7083C42.1667 32.25 41.157 34.6875 39.3598 36.4848C37.5625 38.282 35.125 39.2917 32.5833 39.2917C30.0417 39.2917 27.6041 38.282 25.8069 36.4848C24.0097 34.6875 23 32.25 23 29.7083C23 27.1667 24.0097 24.7291 25.8069 22.9319C27.6041 21.1347 30.0417 20.125 32.5833 20.125C35.125 20.125 37.5625 21.1347 39.3598 22.9319C41.157 24.7291 42.1667 27.1667 42.1667 29.7083Z" fill="white" stroke="#EC6F01" strokeWidth="1.91667" strokeLinecap="round" strokeLinejoin="round"/>
<path d="M35.4584 27.7916L37.375 29.7083L35.4584 31.625" stroke="#EC6F01" strokeWidth="1.91667" strokeLinecap="round" strokeLinejoin="round"/>
<path d="M29.7083 31.625L27.7916 29.7083L29.7083 27.7916" stroke="#EC6F01" strokeWidth="1.91667" strokeLinecap="round" strokeLinejoin="round"/>
</svg>
