<svg width="249" height="99" viewBox="0 0 249 99" fill="none" xmlns="http://www.w3.org/2000/svg">
<path fill-rule="evenodd" clip-rule="evenodd" d="M210.602 1.6915C188.886 6.28173 169.409 15.7633 162.293 25.2095C159.958 28.3085 159.926 28.3231 155.621 28.3446L151.296 28.3661L151.111 46.4814L150.926 64.5966L138.745 43.1853L126.565 21.774L121.224 21.5714L115.883 21.3687V38.144V54.92L120.567 62.2692L125.251 69.6185L125.44 55.7805L125.628 41.9432L139.35 64.8194L153.072 87.6955L157.018 87.903L160.963 88.1112L161.148 71.034L161.334 53.9569L165.498 59.7233C170.888 67.1898 186.247 82.6446 192.907 87.3042C203.982 95.0524 212.189 98.1049 220.631 97.6164C224.773 97.3763 226.722 96.8739 229.611 95.3015C242.717 88.1688 249.995 66.0427 248.89 36.6931C248.176 17.7396 244.078 7.28581 235.357 2.17585C230.708 -0.549135 222.008 -0.719143 210.602 1.6915ZM202.419 18.2017C208.54 21.3035 211.882 27.1171 211.859 34.6287C211.833 43.5677 208.107 48.552 194.989 57.1981C186.242 62.9639 183.886 65.4279 183.886 68.8128C183.886 70.0098 184.361 70.66 185.448 70.9515C187.491 71.499 202.882 71.5121 204.3 70.9674C205.07 70.6718 205.398 69.6372 205.398 67.4979V64.4495H211.522C217.123 64.4495 217.783 64.5945 219.243 66.1496C221.312 68.3514 225.808 70.4442 229.734 71.0333C239.944 72.5641 246.026 61.4019 238.77 54.4496C237.257 52.9993 235.579 52.3449 231.708 51.6927C226.901 50.8822 226.58 50.7129 225.679 48.5034C224.735 46.1913 224.769 46.1081 229.46 39.205C232.065 35.3739 235.216 30.8885 236.463 29.2384L238.732 26.2372L231.259 26.4343L223.786 26.6314L223.573 29.5805L223.36 32.5296H218.889H214.419V26.4391C214.419 16.834 213.639 17.2636 231.085 17.2636H245.591L246.269 19.8657C248.233 27.3981 248.346 26.945 242.509 34.9541C239.561 38.9989 237.266 42.3942 237.407 42.4997C237.549 42.6059 239.077 43.2145 240.803 43.8528C242.529 44.4919 244.937 45.9242 246.155 47.0365C248.243 48.9441 248.348 49.2702 247.992 52.7641C246.921 63.281 243.997 75.8706 242.013 78.5026C241.53 79.1445 239.261 80.159 236.971 80.7578C230.708 82.3954 223.534 81.0909 217.729 77.2598C214.611 75.2017 214.419 75.1809 214.419 76.9004C214.419 79.9154 212.187 80.4095 198.574 80.4095H185.814L182.456 77.5984C180.61 76.0524 177.84 73.283 176.3 71.4441L173.5 68.1002L174.594 64.8908C176.208 60.1542 181.077 55.2406 189.928 49.4222C195.011 46.0789 198.416 43.313 199.544 41.608C204.421 34.2387 201.052 26.2941 193.046 26.2872C187.942 26.2823 185.274 28.3259 185.274 32.2396C185.274 33.8418 185.072 33.9174 180.764 33.9174H176.253L176.256 29.5805C176.259 24.4129 177.651 21.6977 181.526 19.3037C187.756 15.4531 196.124 15.0118 202.419 18.2017ZM80.4937 58.1773V88.0425H85.3511H90.2084V81.1034V74.1643H99.9343H109.659L114.148 81.1034L118.637 88.0425H124.199C127.258 88.0425 129.761 87.783 129.761 87.4665C129.761 87.1494 121.394 73.8 111.165 57.8018L92.5698 28.7131L86.5314 28.5126L80.4937 28.312V58.1773ZM0 34.6113V39.4687H4.85738H9.71476V34.6113V29.754H4.85738H0V34.6113ZM11.1026 34.5891V39.425L19.256 39.62L27.4095 39.8157V58.323V76.8296L25.7372 78.6088C22.5625 81.9867 16.6587 81.5974 14.2023 77.8489C13.5805 76.899 12.897 74.4328 12.684 72.3677L12.2961 68.613H6.49501H0.693911V72.8694C0.693911 79.1667 1.90548 82.3295 5.88367 86.4215C8.6496 89.2666 10.2151 90.2491 13.4792 91.1901C21.5952 93.5292 31.1795 91.2498 35.6719 85.9108C39.8291 80.9702 39.8492 80.8279 40.0983 54.2143L40.328 29.754H25.715H11.1026V34.5891ZM45.1042 68.613V98.4512H62.105H79.1059V93.9407V89.4303L70.6055 89.4241C65.9306 89.4213 60.466 89.2214 58.462 88.9807L54.819 88.5428V81.0069V73.4704H63.1459H71.4728V68.613V63.7556H63.1459H54.819V56.1226V48.4896H65.5746H76.3302V43.6322V38.7748H60.7172H45.1042V68.613ZM96.6528 53.7439C99.824 58.6783 102.657 63.1054 102.947 63.5821C103.355 64.2524 101.967 64.4495 96.8415 64.4495H90.2084V54.2719C90.2084 48.6748 90.3611 44.2477 90.5478 44.4343C90.7344 44.621 93.4816 48.8101 96.6528 53.7439ZM80.4937 93.9407V98.4512H85.3511H90.2084V93.9407V89.4303H85.3511H80.4937V93.9407Z" fill="black"/>
</svg>
