<svg width="218" height="130" viewBox="0 0 218 152" fill="none" xmlns="http://www.w3.org/2000/svg">
<g clip-path="url(#clip0_52_163)">
<path d="M35.6204 0.0871176C30.3926 6.57792 0.597686 79.7112 7.64892e-06 145.218C-0.00253346 145.276 0.0168861 145.333 0.0544551 145.377C0.0920241 145.422 0.14504 145.451 0.203118 145.459C0.261197 145.467 0.320153 145.453 0.36844 145.42C0.416726 145.387 0.450862 145.337 0.464164 145.281L36.0209 0.30676C36.0381 0.255563 36.0367 0.200014 36.0169 0.149755C35.9971 0.0994966 35.9602 0.057696 35.9127 0.0316064C35.8651 0.00551681 35.8098 -0.0032162 35.7564 0.00692297C35.703 0.0170621 35.6549 0.0454363 35.6204 0.0871176Z" fill="#00ADD9"/>
<path d="M5.36386 144.132C15.78 158.445 12.0426 130.524 9.78668 94.2897L5.36386 144.132Z" fill="#EE6E3C"/>
<path d="M9.78667 94.2909L18.0995 18.3566C7.30822 16.4126 7.7215 73.4729 9.78667 94.2909Z" fill="#EE6E3C"/>
<path d="M13.594 118.275C10.0664 85.3007 4.81069 35.9241 3.96631 27.3884C3.96173 27.3326 3.93717 27.2804 3.89709 27.2412C3.85702 27.2019 3.80408 27.1782 3.74791 27.1744C3.69173 27.1706 3.63603 27.1869 3.59094 27.2203C3.54584 27.2538 3.51434 27.3022 3.50215 27.3568C-2.70099 54.8424 5.96154 92.6865 13.2507 118.406C14.75 132.442 16.7846 151.418 16.7846 151.418C24.8927 155.16 20.0121 140.461 13.594 118.275Z" fill="#00346C"/>
<path d="M37.0306 126.058H34.5013L33.9672 127.584H33.1406L35.3965 121.326H36.1341L38.39 127.584H37.5825L37.0306 126.058ZM35.9688 123.055C35.8906 122.849 35.8248 122.638 35.7717 122.424C35.7272 122.582 35.6445 122.878 35.5682 123.055L34.7416 125.37H36.7877L35.9688 123.055Z" fill="#00ADD9"/>
<path d="M41.4102 124.463C41.4102 122.892 42.1541 121.226 44.0476 121.226C44.4642 121.19 44.8822 121.278 45.248 121.479C45.6137 121.681 45.9105 121.986 46.1001 122.356L45.388 122.716C45.2554 122.479 45.0596 122.283 44.822 122.149C44.5844 122.015 44.3142 121.949 44.0413 121.958C42.6755 121.958 42.2241 123.327 42.2241 124.469C42.2241 125.712 42.7709 126.973 44.0413 126.973C44.3242 126.984 44.6045 126.915 44.8496 126.775C45.0947 126.634 45.2946 126.427 45.4261 126.178L46.1573 126.45C45.9753 126.847 45.6764 127.18 45.2998 127.406C44.9231 127.631 44.4866 127.738 44.0476 127.712C42.1223 127.702 41.4102 126.052 41.4102 124.463Z" fill="#00ADD9"/>
<path d="M49.5323 124.463C49.5323 122.892 50.2762 121.226 52.1697 121.226C52.5863 121.19 53.0043 121.278 53.37 121.479C53.7358 121.681 54.0325 121.986 54.2221 122.356L53.51 122.716C53.3775 122.479 53.1816 122.283 52.944 122.149C52.7064 122.015 52.4363 121.949 52.1633 121.958C50.7976 121.958 50.3461 123.327 50.3461 124.469C50.3461 125.712 50.8929 126.973 52.1633 126.973C52.4463 126.984 52.7265 126.915 52.9716 126.775C53.2167 126.634 53.4166 126.427 53.5482 126.178L54.2794 126.45C54.0974 126.847 53.7984 127.18 53.4218 127.406C53.0452 127.631 52.6086 127.738 52.1697 127.712C50.2444 127.702 49.5323 126.052 49.5323 124.463Z" fill="#00ADD9"/>
<path d="M57.6594 124.463C57.6594 122.918 58.3588 121.226 60.3604 121.226C62.362 121.226 63.0741 122.916 63.0741 124.463C63.0741 126.009 62.3747 127.699 60.3604 127.699C58.3461 127.699 57.6594 126.008 57.6594 124.463ZM62.2374 124.463C62.2374 123.238 61.7542 121.952 60.3566 121.952C58.9591 121.952 58.4758 123.327 58.4758 124.463C58.4758 125.687 58.9654 126.967 60.3566 126.967C61.7478 126.967 62.2412 125.585 62.2412 124.463H62.2374Z" fill="#00ADD9"/>
<path d="M71.6375 127.594V123.747C71.6375 123.532 71.6375 123.217 71.6565 123.059C71.5866 123.267 71.4658 123.551 71.3768 123.766L69.6295 127.702L67.9395 123.747C67.8568 123.551 67.736 123.274 67.6661 123.065C67.6852 123.229 67.6915 123.532 67.6915 123.747V127.594H66.9031V121.333H67.647L69.496 125.547L69.6613 125.97C69.7058 125.844 69.7694 125.686 69.8266 125.547L71.682 121.333H72.4386V127.594H71.6375Z" fill="#00ADD9"/>
<path d="M76.541 121.327H78.9813C79.2459 121.29 79.5154 121.312 79.7704 121.391C80.0255 121.47 80.2596 121.604 80.456 121.784C80.6524 121.964 80.806 122.185 80.906 122.431C81.0059 122.677 81.0495 122.942 81.0337 123.207C81.0378 123.468 80.9861 123.727 80.8821 123.966C80.778 124.206 80.6239 124.421 80.43 124.598C80.2361 124.774 80.0067 124.908 79.757 124.99C79.5073 125.072 79.2429 125.1 78.9813 125.074H77.3358V127.584H76.5473V121.327H76.541ZM80.2402 123.207C80.2507 123.048 80.2263 122.89 80.1686 122.742C80.111 122.594 80.0215 122.461 79.9065 122.351C79.7914 122.241 79.6536 122.157 79.5026 122.105C79.3516 122.054 79.191 122.035 79.0321 122.052H77.3294V124.348H79.0334C79.1911 124.364 79.3506 124.347 79.5008 124.296C79.651 124.246 79.7883 124.163 79.9031 124.055C80.018 123.946 80.1076 123.814 80.1658 123.668C80.224 123.521 80.2494 123.364 80.2402 123.207Z" fill="#00ADD9"/>
<path d="M87.1275 126.058H84.5982L84.0641 127.584H83.2375L85.4934 121.326H86.231L88.4869 127.584H87.6794L87.1275 126.058ZM86.0619 123.056C85.9837 122.85 85.9179 122.639 85.8648 122.425C85.8202 122.583 85.7376 122.88 85.6613 123.056L84.8347 125.372H86.8808L86.0619 123.056Z" fill="#00ADD9"/>
<path d="M91.5071 124.463C91.5071 122.842 92.3464 121.226 94.2081 121.226C94.6218 121.196 95.0356 121.283 95.4013 121.478C95.767 121.672 96.0694 121.966 96.2733 122.324L95.5611 122.728C95.4246 122.492 95.2273 122.297 94.9896 122.161C94.7518 122.026 94.4821 121.956 94.2081 121.958C92.7915 121.958 92.3273 123.314 92.3273 124.463C92.3273 125.749 92.8805 126.954 94.2081 126.954C94.3999 126.964 94.5915 126.933 94.7704 126.863C94.9493 126.794 95.1115 126.688 95.2464 126.553C95.3813 126.417 95.4858 126.254 95.5532 126.076C95.6206 125.897 95.6493 125.707 95.6374 125.517V125.264H94.4802V124.546H96.4627V125.303C96.4953 125.613 96.4607 125.925 96.3611 126.22C96.2615 126.515 96.0992 126.785 95.8854 127.013C95.6715 127.24 95.411 127.419 95.1215 127.538C94.8319 127.657 94.52 127.713 94.2068 127.702C92.2764 127.702 91.5071 126.096 91.5071 124.463Z" fill="#00ADD9"/>
<path d="M104.264 127.594L101.398 123.122C101.315 122.996 101.226 122.838 101.144 122.687C101.144 122.813 101.163 122.983 101.163 123.122V127.594H100.374V121.333H101.176L103.997 125.787C104.086 125.938 104.169 126.083 104.252 126.254C104.252 126.096 104.233 125.938 104.233 125.799V121.34H105.027V127.594H104.264Z" fill="#00ADD9"/>
<path d="M109.136 121.327H112.919V122.059H109.926V123.983H111.902V124.715H109.926V126.843H113.116V127.588H109.13V121.327H109.136Z" fill="#00ADD9"/>
<path d="M116.921 121.327H119.431C120.957 121.327 121.439 122.223 121.439 123.106C121.45 123.525 121.305 123.934 121.032 124.255C120.76 124.576 120.378 124.786 119.959 124.846L121.325 127.584H120.435L119.126 124.903H117.71V127.584H116.921V121.327ZM119.444 124.185C119.595 124.201 119.747 124.186 119.891 124.14C120.035 124.094 120.167 124.018 120.28 123.918C120.393 123.818 120.483 123.695 120.544 123.558C120.606 123.421 120.638 123.272 120.638 123.122C120.638 122.972 120.606 122.823 120.544 122.686C120.483 122.549 120.393 122.426 120.28 122.326C120.167 122.226 120.035 122.15 119.891 122.104C119.747 122.058 119.595 122.043 119.444 122.059H117.71V124.185H119.444Z" fill="#00ADD9"/>
<path d="M129.739 121.327H132.18C132.444 121.29 132.714 121.312 132.969 121.391C133.224 121.47 133.458 121.604 133.654 121.784C133.851 121.964 134.005 122.185 134.104 122.431C134.204 122.677 134.248 122.942 134.232 123.207C134.236 123.468 134.185 123.727 134.081 123.966C133.976 124.206 133.822 124.421 133.628 124.598C133.435 124.774 133.205 124.908 132.955 124.99C132.706 125.072 132.441 125.1 132.18 125.074H130.534V127.584H129.746V121.327H129.739ZM133.439 123.207C133.449 123.048 133.425 122.89 133.367 122.742C133.309 122.594 133.22 122.461 133.105 122.351C132.99 122.241 132.852 122.157 132.701 122.105C132.55 122.054 132.39 122.035 132.231 122.052H130.528V124.348H132.231C132.388 124.365 132.548 124.347 132.698 124.297C132.849 124.246 132.986 124.164 133.101 124.055C133.216 123.947 133.306 123.814 133.364 123.668C133.423 123.521 133.448 123.364 133.439 123.207Z" fill="#00ADD9"/>
<path d="M137.435 124.463C137.435 122.918 138.135 121.226 140.137 121.226C142.138 121.226 142.85 122.916 142.85 124.463C142.85 126.009 142.151 127.699 140.137 127.699C138.122 127.699 137.435 126.008 137.435 124.463ZM142.013 124.463C142.013 123.238 141.53 121.952 140.133 121.952C138.735 121.952 138.252 123.327 138.252 124.463C138.252 125.687 138.741 126.967 140.133 126.967C141.524 126.967 142.017 125.585 142.017 124.463H142.013Z" fill="#00ADD9"/>
<path d="M146.632 125.238V121.333H147.427V125.238C147.427 126.612 148.101 126.966 148.92 126.966C149.739 126.966 150.419 126.619 150.419 125.238V121.333H151.214V125.238C151.214 127.035 150.286 127.698 148.925 127.698C147.58 127.698 146.632 127.043 146.632 125.238Z" fill="#00ADD9"/>
<path d="M155.281 121.327H157.791C159.317 121.327 159.799 122.223 159.799 123.106C159.809 123.525 159.665 123.934 159.392 124.255C159.119 124.576 158.737 124.786 158.319 124.846L159.684 127.584H158.794L157.486 124.903H156.075V127.584H155.287V121.327H155.281ZM157.804 124.185C157.954 124.208 158.108 124.197 158.254 124.154C158.4 124.111 158.535 124.037 158.648 123.936C158.762 123.835 158.852 123.711 158.911 123.572C158.971 123.432 158.998 123.282 158.993 123.131C158.999 122.979 158.972 122.827 158.913 122.687C158.854 122.546 158.764 122.421 158.651 122.318C158.538 122.216 158.403 122.14 158.256 122.095C158.11 122.05 157.955 122.037 157.804 122.058H156.069V124.184L157.804 124.185Z" fill="#00ADD9"/>
<path d="M168.099 121.327H170.609C172.135 121.327 172.617 122.223 172.617 123.106C172.628 123.525 172.483 123.934 172.21 124.255C171.937 124.576 171.555 124.786 171.137 124.846L172.503 127.584H171.613L170.304 124.903H168.894V127.584H168.105V121.327H168.099ZM170.628 124.185C170.779 124.201 170.931 124.186 171.075 124.14C171.219 124.094 171.352 124.018 171.464 123.918C171.577 123.818 171.667 123.695 171.729 123.558C171.79 123.421 171.822 123.272 171.822 123.122C171.822 122.972 171.79 122.823 171.729 122.686C171.667 122.549 171.577 122.426 171.464 122.326C171.352 122.226 171.219 122.15 171.075 122.104C170.931 122.058 170.779 122.043 170.628 122.059H168.894V124.185H170.628Z" fill="#00ADD9"/>
<path d="M176.494 121.327H180.276V122.059H177.283V123.983H179.259V124.715H177.283V126.841H180.473V127.586H176.488V121.327H176.494ZM178.687 119.353H179.812L178.192 120.741H177.391L178.687 119.353Z" fill="#00ADD9"/>
<path d="M184.229 125.238V121.333H185.023V125.238C185.023 126.612 185.697 126.966 186.516 126.966C187.335 126.966 188.016 126.619 188.016 125.238V121.333H188.81V125.238C188.81 127.035 187.882 127.698 186.521 127.698C185.176 127.698 184.229 127.043 184.229 125.238Z" fill="#00ADD9"/>
<path d="M192.51 126.304L193.254 126.033C193.382 126.317 193.593 126.556 193.859 126.721C194.124 126.886 194.433 126.97 194.746 126.961C195.509 126.961 195.998 126.595 195.998 125.907C195.998 125.181 195.305 124.853 194.562 124.583C193.672 124.261 192.7 123.857 192.7 122.766C192.7 121.927 193.419 121.221 194.658 121.221C195.049 121.177 195.443 121.262 195.78 121.464C196.117 121.667 196.377 121.974 196.519 122.338L195.788 122.578C195.673 122.368 195.498 122.197 195.286 122.084C195.073 121.972 194.832 121.924 194.593 121.947C193.919 121.947 193.512 122.262 193.512 122.767C193.512 123.348 194.167 123.607 194.884 123.866C195.774 124.2 196.809 124.654 196.809 125.885C196.807 126.145 196.75 126.402 196.64 126.638C196.531 126.875 196.372 127.085 196.174 127.256C195.976 127.426 195.744 127.553 195.493 127.628C195.242 127.703 194.978 127.723 194.719 127.689C194.25 127.722 193.783 127.606 193.385 127.357C192.988 127.107 192.681 126.739 192.51 126.304Z" fill="#00ADD9"/>
<path d="M200.288 126.304L201.032 126.033C201.161 126.317 201.372 126.556 201.637 126.721C201.903 126.886 202.212 126.97 202.525 126.961C203.288 126.961 203.778 126.595 203.778 125.907C203.778 125.181 203.085 124.853 202.342 124.583C201.452 124.261 200.48 123.857 200.48 122.766C200.48 121.927 201.199 121.221 202.437 121.221C202.829 121.177 203.223 121.262 203.56 121.464C203.897 121.667 204.157 121.974 204.299 122.338L203.568 122.578C203.453 122.368 203.278 122.197 203.066 122.084C202.853 121.972 202.612 121.924 202.373 121.947C201.699 121.947 201.292 122.262 201.292 122.767C201.292 123.348 201.947 123.607 202.664 123.866C203.554 124.2 204.589 124.654 204.589 125.885C204.587 126.145 204.53 126.402 204.42 126.638C204.311 126.875 204.152 127.085 203.954 127.256C203.756 127.426 203.524 127.553 203.273 127.628C203.022 127.703 202.758 127.723 202.498 127.689C202.029 127.723 201.562 127.606 201.164 127.357C200.767 127.108 200.46 126.739 200.288 126.304Z" fill="#00ADD9"/>
<path d="M208.447 121.327H209.236V127.586H208.447V121.327Z" fill="#00ADD9"/>
<path d="M213.372 121.327H215.883C217.409 121.327 217.891 122.223 217.891 123.106C217.901 123.525 217.756 123.934 217.484 124.255C217.211 124.576 216.829 124.786 216.41 124.846L217.776 127.584H216.886L215.578 124.903H214.167V127.584H213.379V121.327H213.372ZM215.902 124.185C216.052 124.201 216.204 124.186 216.348 124.14C216.492 124.094 216.625 124.018 216.738 123.918C216.85 123.818 216.94 123.695 217.002 123.558C217.064 123.421 217.096 123.272 217.096 123.122C217.096 122.972 217.064 122.823 217.002 122.686C216.94 122.549 216.85 122.426 216.738 122.326C216.625 122.226 216.492 122.15 216.348 122.104C216.204 122.058 216.052 122.043 215.902 122.059H214.167V124.185H215.902Z" fill="#00ADD9"/>
<path d="M33.1928 77.5034H53.8152V81.5428H37.5075V92.1222H48.267V96.1616H37.5075V107.87H54.9076V111.951H33.1928V77.5034Z" fill="#00346C"/>
<path d="M62.3887 104.863L66.458 103.387C67.1497 104.943 68.2917 106.261 69.7389 107.171C71.1861 108.082 72.8734 108.546 74.5865 108.503C78.7486 108.503 81.4241 106.484 81.4241 102.697C81.4241 98.7102 77.655 96.8899 73.5946 95.4168C68.7394 93.6496 63.4328 91.4304 63.4328 85.4307C63.4328 80.8068 67.3469 76.9202 74.0905 76.9202C79.5942 76.9202 83.2096 79.5256 84.2523 83.0714L80.2873 84.4019C79.4416 82.4844 77.2112 80.9066 73.7929 80.9066C70.1255 80.9066 67.895 82.6283 67.895 85.4357C67.895 88.6344 71.4671 90.0596 75.3812 91.486C80.2364 93.3088 85.8928 95.8132 85.8928 102.608C85.8928 108.954 81.0376 112.55 74.4911 112.55C68.4393 112.534 63.9262 109.291 62.3887 104.863Z" fill="#00346C"/>
<path d="M95.3017 99.0031V77.4971H99.6165V99.0031C99.6165 106.577 103.284 108.497 107.745 108.497C112.206 108.497 115.924 106.579 115.924 99.0031V77.4971H120.239V99.0031C120.239 108.895 115.18 112.535 107.745 112.535C100.456 112.534 95.3017 108.945 95.3017 99.0031Z" fill="url(#paint0_linear_52_163)"/>
<path d="M131.189 77.5034H144.472C152.899 77.5034 155.676 82.7205 155.676 87.8367C155.676 92.5615 152.6 98.1195 144.472 98.1195H135.499V111.948H131.183V77.5034H131.189ZM151.366 87.8367C151.366 85.1303 149.982 81.4911 144.777 81.4911H135.505V94.1394H144.777C149.683 94.1319 151.366 90.7892 151.366 87.8367Z" fill="#00346C"/>
<path d="M163.905 77.5034H184.527V81.5428H168.216V92.1222H178.975V96.1616H168.216V107.87H185.616V111.951H163.905V77.5034Z" fill="#00346C"/>
<path d="M192.115 94.7251C192.115 86.0632 196.185 76.9102 206.485 76.9102C212.879 76.9102 216.15 80.0079 217.69 83.1119L213.826 85.0798C212.194 82.6701 210.305 80.8978 206.493 80.8978C199.057 80.8978 196.574 88.4237 196.574 94.7264C196.574 101.564 199.548 108.505 206.493 108.505C208.039 108.564 209.57 108.184 210.905 107.408C212.241 106.633 213.325 105.494 214.03 104.127L217.995 105.602C216.215 109.437 212.593 112.545 206.492 112.545C195.979 112.534 192.115 103.482 192.115 94.7251Z" fill="url(#paint1_linear_52_163)"/>
</g>
<defs>
<linearGradient id="paint0_linear_52_163" x1="95.3017" y1="95.0161" x2="120.239" y2="95.0161" gradientUnits="userSpaceOnUse">
<stop stop-color="#00ADD9"/>
<stop offset="1" stop-color="#00346C"/>
</linearGradient>
<linearGradient id="paint1_linear_52_163" x1="192.115" y1="94.7277" x2="217.995" y2="94.7277" gradientUnits="userSpaceOnUse">
<stop stop-color="#00ADD9"/>
<stop offset="1" stop-color="#00346C"/>
</linearGradient>
<clipPath id="clip0_52_163">
<rect width="218" height="152" fill="white"/>
</clipPath>
</defs>
</svg>
