<svg width="237" height="44" viewBox="0 0 237 44" fill="none" xmlns="http://www.w3.org/2000/svg">
<path d="M86.664 30.1651H75.2313L62.5305 0.887333H74.0807L86.664 30.1651ZM15.092 0C23.4184 0 30.1912 7.00648 30.1912 15.619H15.092V30.1547C20.0397 30.1547 24.5325 27.5461 27.1112 23.1744L27.9994 23.7349C25.2304 28.4292 20.4053 31.2316 15.092 31.2316C6.76969 31.2316 0 24.2283 0 15.619C0 7.00648 6.76969 0 15.092 0ZM48.9942 30.1547C53.404 30.1547 57.4755 28.073 60.1636 24.442L60.99 25.0957C58.1025 28.995 53.7301 31.2316 48.9942 31.2316C40.6688 31.2316 33.8951 24.2283 33.8951 15.619C33.8951 7.00648 40.6688 0 48.9942 0C53.7352 0 58.1126 2.23876 61.0022 6.14324L60.1757 6.79695C57.4857 3.16067 53.4081 1.0759 48.9942 1.0759V30.1547Z" fill="black"/>
<path d="M88.1326 0.796192C89.6872 -0.00199549 91.4643 -0.206996 93.1508 0.217315C94.8372 0.641625 96.3248 1.66802 97.3513 3.11562L92.1251 15.2408C89.1707 15.5341 86.2042 13.9522 84.8055 11.0398C83.9348 9.22482 83.7962 7.1266 84.42 5.20597C85.0439 3.28533 86.3791 1.6993 88.1326 0.796192Z" fill="#8C74D9"/>
<path d="M103.46 6.92998C103.46 3.3775 106.172 0.592934 109.634 0.592934C111.42 0.592934 113.122 1.38912 114.305 2.77617C114.661 3.18474 114.901 3.5556 115.058 3.94008L115.095 4.02703H113.656L113.637 3.99874C112.764 2.65255 111.225 1.81551 109.62 1.81551C106.981 1.81551 104.752 4.16636 104.752 6.94674C104.752 9.65379 107.034 12.0277 109.634 12.0277C111.186 12.0277 112.627 11.2231 113.689 9.75855L115.153 9.73446L115.105 9.82665C113.993 11.9386 111.904 13.2513 109.649 13.2513C106.237 13.2513 103.46 10.4154 103.46 6.92998ZM116.845 13.0376V3.9516H118.076V5.10608C118.553 4.07836 119.389 3.80179 120.481 3.72217L120.546 3.71693V5.0537L120.491 5.05893C118.979 5.18884 118.076 6.18827 118.076 7.7335V13.0376H116.845ZM130.126 10.0634C129.814 10.9916 129.231 11.7967 128.458 12.3677C127.684 12.9386 126.759 13.2474 125.809 13.2513C123.286 13.2513 121.235 11.1215 121.235 8.50246C121.235 5.8677 123.278 3.72217 125.793 3.72217C128.332 3.72217 130.4 5.90436 130.4 8.58417C130.4 8.64389 130.396 8.69941 130.391 8.75284C130.387 8.80654 130.385 8.86034 130.384 8.91417V8.97493H122.5C122.611 10.6438 124.134 12.0947 125.793 12.0947C127.172 12.0947 128.398 11.2608 128.84 10.0215L128.856 9.98065H130.156L130.126 10.0634ZM129.116 7.80789C128.803 6.07931 127.451 4.87874 125.803 4.87874C124.177 4.87874 122.801 6.10655 122.507 7.80789H129.116ZM139.807 11.5563C139.075 12.6259 137.857 13.2513 136.464 13.2513C133.823 13.2513 131.754 11.1519 131.754 8.46998C131.754 5.80798 133.823 3.72217 136.465 3.72217C137.871 3.72217 139.082 4.34236 139.808 5.42979V3.9516H141.036V13.0376H139.807V11.5563ZM139.88 8.49722C139.88 6.50255 138.35 4.87874 136.47 4.87874C134.45 4.87874 132.983 6.40827 132.983 8.51503C132.983 10.5495 134.482 12.0843 136.47 12.0843C138.383 12.0843 139.88 10.5086 139.88 8.49722ZM144.426 13.0481V5.11341H142.603V3.95474H144.426V0.789886H145.655V3.9537H147.731V5.11341H145.655V13.0481H144.426ZM149.255 3.9516H150.485V13.0491H149.255V3.9516ZM149.255 0.789886H150.485V2.97941H149.255V0.789886ZM155.343 13.0481L151.632 3.9516H152.953L155.97 11.3981L159.034 3.9516H160.353L156.642 13.0481H155.343ZM169.982 10.0634C169.669 10.9915 169.086 11.7965 168.313 12.3675C167.54 12.9384 166.614 13.2472 165.664 13.2513C163.142 13.2513 161.088 11.1215 161.088 8.50246C161.088 5.8677 163.135 3.72217 165.648 3.72217C168.189 3.72217 170.254 5.90436 170.254 8.58417C170.254 8.64389 170.25 8.69941 170.246 8.75284C170.242 8.80417 170.239 8.8576 170.239 8.91417V8.97493H162.354C162.466 10.6438 163.989 12.0947 165.648 12.0947C167.028 12.0947 168.253 11.2608 168.694 10.0215L168.711 9.98065H170.01L169.982 10.0634ZM168.971 7.80789C168.658 6.07931 167.307 4.87874 165.659 4.87874C164.031 4.87874 162.656 6.10655 162.361 7.80789H168.971ZM183.113 9.63389C183.113 11.6621 181.533 13.2513 179.514 13.2513C177.381 13.2513 175.87 11.7438 175.839 9.5836L175.838 9.52179H177.13L177.133 9.5815C177.197 11.0911 178.111 12.0277 179.514 12.0277C180.807 12.0277 181.818 10.9979 181.818 9.68208C181.818 8.07608 180.491 7.5355 179.245 7.15417C177.555 6.63979 176.156 6.03846 176.156 3.90027C176.156 2.00512 177.6 0.576172 179.514 0.576172C181.373 0.576172 182.828 2.05017 182.828 3.9317V3.99455H181.532V3.9317C181.532 2.75627 180.629 1.79979 179.514 1.79979C178.339 1.79979 177.451 2.68189 177.451 3.84998C177.451 5.25065 178.697 5.61836 179.801 5.94627L180.199 6.06779C182.106 6.66179 183.113 7.89484 183.113 9.63389ZM193.583 10.3662C192.642 12.2812 191.174 13.2513 189.22 13.2513C186.575 13.2513 184.504 11.1666 184.504 8.50246C184.504 5.8677 186.619 3.72217 189.22 3.72217C191.171 3.72217 192.884 4.88922 193.585 6.69322L193.619 6.78017H192.274L192.256 6.7456C191.971 6.17746 191.54 5.70214 191.01 5.37254C190.479 5.04294 189.871 4.872 189.253 4.87874C187.279 4.87874 185.733 6.45541 185.733 8.46998C185.733 10.5024 187.279 12.0947 189.253 12.0947C190.57 12.0947 191.693 11.4264 192.256 10.3086L192.273 10.2761H193.628L193.583 10.3662ZM201.763 13.0481V8.05093C201.763 7.56274 201.685 6.35065 200.956 5.63512C200.454 5.15386 199.796 4.88504 199.111 4.88189C198.433 4.88189 197.758 5.15846 197.266 5.63512C196.553 6.33493 196.476 7.49989 196.476 7.96817V13.0481H195.244V0.789886H196.477V5.00865C197.012 4.22293 198.019 3.72427 199.111 3.72427C201.506 3.72427 202.995 5.3816 202.995 8.05093V13.0481H201.763ZM213.93 8.48779C213.928 9.75074 213.442 10.9614 212.579 11.8543C211.715 12.7473 210.545 13.2497 209.324 13.2513C206.844 13.2513 204.75 11.0995 204.75 8.55065C204.75 5.88865 206.802 3.72217 209.324 3.72217C211.82 3.72217 213.93 5.90436 213.93 8.48779ZM212.701 8.43227C212.701 6.47322 211.192 4.87874 209.34 4.87874C207.486 4.87874 205.979 6.51827 205.979 8.53074C205.979 10.4898 207.486 12.0843 209.34 12.0843C211.225 12.0843 212.701 10.4793 212.701 8.43227ZM224.464 8.48779C224.463 9.75055 223.978 10.9612 223.114 11.8542C222.251 12.7472 221.081 13.2497 219.86 13.2513C217.38 13.2513 215.284 11.0995 215.284 8.55065C215.284 5.88865 217.337 3.72217 219.86 3.72217C222.356 3.72217 224.464 5.90436 224.464 8.48779ZM223.236 8.43227C223.236 6.47322 221.729 4.87874 219.875 4.87874C218.021 4.87874 216.515 6.51827 216.515 8.53074C216.515 10.4898 218.021 12.0843 219.875 12.0843C221.76 12.0843 223.236 10.4793 223.236 8.43227ZM226.184 0.789886H227.424V13.0481H226.184V0.789886ZM234.367 10.4531C234.367 12.1786 233.3 13.2513 231.582 13.2513C230.005 13.2513 228.861 12.0602 228.861 10.4186V10.2593H230.09L230.091 10.3211C230.108 11.4473 230.652 12.0947 231.582 12.0947C232.556 12.0947 233.137 11.5165 233.137 10.5506C233.137 9.47465 232.265 9.13417 231.341 8.77379C230.297 8.36522 229.114 7.90427 229.114 6.27417C229.114 4.79493 230.179 3.72217 231.645 3.72217C233.003 3.72217 234.066 4.82217 234.066 6.22598V6.28884H232.84L232.836 6.22912C232.788 5.40884 232.3 4.87874 231.599 4.87874C230.884 4.87874 230.345 5.43084 230.345 6.15998C230.345 7.01798 231.091 7.30503 231.958 7.63503C233.086 8.06665 234.367 8.55589 234.367 10.4531ZM110.996 27.7315C110.398 28.8944 109.379 30.3914 107.416 30.3914C105.348 30.3914 103.665 28.7026 103.665 26.6294C103.665 25.0664 104.563 23.848 106.329 23.0088C105.652 22.3185 105.059 21.5966 105.059 20.4904C105.059 18.9745 106.35 17.7435 107.938 17.7435C109.491 17.7435 110.804 19.0687 110.804 20.6391C110.804 22.0628 109.623 23.013 108.573 23.4143L110.663 25.543L112.353 22.1802H113.805L111.609 26.5026L114.583 29.4946L113.656 30.4166L110.996 27.7315ZM107.259 23.9716C106.19 24.3676 104.96 25.3146 104.96 26.7069C104.96 28.0039 106.062 29.1406 107.322 29.1406C108.718 29.1406 109.422 27.9829 110.02 26.7855L107.259 23.9716ZM109.499 20.526C109.499 19.6648 108.82 19.0153 107.918 19.0153C107.166 19.0153 106.352 19.5747 106.352 20.4757C106.352 21.3106 107.168 22.0566 107.631 22.4683C108.621 22.0775 109.499 21.6281 109.499 20.526ZM131.791 27.0024C130.681 29.1154 128.594 30.4281 126.341 30.4281C122.931 30.4281 120.156 27.589 120.156 24.1026C120.156 20.5448 122.867 17.7592 126.326 17.7592C128.111 17.7592 129.81 18.5554 130.992 19.9456C131.349 20.3542 131.59 20.724 131.746 21.1106L131.781 21.1975H130.344L130.327 21.1703C129.454 19.822 127.916 18.9839 126.31 18.9839C123.676 18.9839 121.448 21.3347 121.448 24.1204C121.448 26.8285 123.727 29.2034 126.326 29.2034C127.878 29.2034 129.316 28.3988 130.377 26.9343L131.84 26.9091L131.791 27.0024ZM142.369 25.6478C142.366 26.911 141.879 28.1215 141.015 29.0138C140.15 29.906 138.979 30.4071 137.758 30.4071C135.276 30.4071 133.179 28.2574 133.179 25.7138C133.179 23.0528 135.233 20.8874 137.758 20.8874C140.258 20.8874 142.369 23.0686 142.369 25.6478ZM141.12 25.6048C141.12 23.6416 139.615 22.045 137.766 22.045C135.915 22.045 134.408 23.6866 134.408 25.7023C134.408 27.6655 135.915 29.261 137.766 29.261C139.646 29.261 141.12 27.655 141.12 25.6048ZM155.751 30.2039V24.948C155.751 24.0753 155.527 22.045 153.451 22.045C151.377 22.045 151.153 24.0753 151.153 24.948V30.2039H149.924V24.948C149.924 24.0753 149.7 22.045 147.624 22.045C145.548 22.045 145.324 24.0753 145.324 24.948V30.2039H144.095V21.1179H145.324V22.0115C145.839 21.2949 146.666 20.8874 147.624 20.8874C148.872 20.8874 149.929 21.495 150.541 22.5521C151.234 21.4636 152.238 20.8874 153.451 20.8874C155.596 20.8874 156.981 22.4316 156.981 24.817V30.2039H155.751ZM170.771 30.2039V24.948C170.771 24.0753 170.545 22.045 168.471 22.045C166.395 22.045 166.171 24.0753 166.171 24.948V30.2039H164.942V24.948C164.942 24.0753 164.717 22.045 162.642 22.045C160.566 22.045 160.342 24.0753 160.342 24.948V30.2039H159.112V21.1179H160.342V22.0115C160.857 21.2949 161.684 20.8874 162.642 20.8874C163.891 20.8874 164.948 21.495 165.56 22.5521C166.251 21.4636 167.256 20.8874 168.471 20.8874C170.615 20.8874 171.999 22.4316 171.999 24.817V30.2039H170.771ZM180.608 28.9363C180.128 29.855 179.106 30.4176 177.865 30.4176C176.606 30.4176 175.504 29.92 174.84 29.0505C174.32 28.3737 174.066 27.4183 174.066 26.1276V21.1179H175.297V26.1119C175.297 28.2302 176.137 29.261 177.865 29.261C178.618 29.261 179.156 29.0505 179.661 28.5581C180.395 27.83 180.545 26.9741 180.545 25.916V21.1179H181.774V30.2039H180.608V28.9363ZM190.415 30.2039V25.2109C190.415 24.7227 190.336 23.5106 189.61 22.7993C189.109 22.3178 188.451 22.0486 187.767 22.045C187.088 22.045 186.417 22.3216 185.922 22.7993C185.21 23.496 185.136 24.6599 185.136 25.1282V30.2039H183.904V21.1179H185.136V22.1718C185.671 21.3871 186.675 20.8874 187.767 20.8874C190.159 20.8874 191.644 22.5458 191.644 25.2109V30.2039H190.415ZM193.727 21.1179H194.957V30.2039H193.727V21.1179ZM193.727 17.9562H194.957V20.1457H193.727V17.9562ZM198.382 30.2039V22.2755H196.562V21.1179H198.382V17.9562H199.612V21.1179H201.687V22.2755H199.612V30.2039H198.382ZM204.257 33.3394L205.8 29.8142L202.392 21.1179H203.694L206.412 28.1537L209.316 21.1179H210.619L205.547 33.3394H204.257Z" fill="#EB0010"/>
</svg>
