<svg width="229" height="85" viewBox="0 0 229 85" fill="none" xmlns="http://www.w3.org/2000/svg">
<path d="M48.9817 48.8212V47.2492H58.8581V48.8212C58.8581 59.9611 50.1635 68.6957 38.9788 68.6957C27.8361 68.6957 19.1415 59.9611 19.1415 48.8212V47.2492L29.0179 47.2479V48.8212C29.0179 54.8978 33.2386 59.2857 38.9788 59.2857C44.7611 59.2857 48.9817 54.8978 48.9817 48.8212Z" fill="#231F20"/>
<path d="M77.0703 24.2977V39.2872H73.8181V19.1725H77.8148L86.5515 33.8317L87.4059 35.6775L87.296 33.6936V19.1725H90.5479V39.2872H86.7996L77.7594 24.0494L76.8774 22.3961L77.0703 24.2977Z" fill="#231F20"/>
<path d="M99.9461 37.0553C100.626 37.0553 101.26 36.9178 101.848 36.6419C102.436 36.3667 102.946 35.9994 103.378 35.5401C103.809 35.081 104.149 34.5437 104.397 33.9278C104.645 33.3128 104.769 32.6834 104.769 32.0403V30.9381C104.53 31.2506 104.14 31.5167 103.598 31.7375C103.056 31.9576 102.279 32.1784 101.269 32.3985C99.891 32.6925 98.8665 33.0279 98.196 33.4042C97.5251 33.7813 97.1903 34.3646 97.1903 35.1543C97.1903 35.7602 97.4242 36.2286 97.8928 36.5593C98.3613 36.8903 99.0457 37.0553 99.9461 37.0553ZM98.6783 39.5627C97.1352 39.5627 95.9403 39.2143 95.0953 38.516C94.2503 37.8177 93.8275 36.8809 93.8275 35.7051C93.8275 34.8233 94.0066 34.1069 94.3649 33.5558C94.7232 33.005 95.1961 32.5457 95.7843 32.1784C96.3359 31.8296 97.0061 31.5403 97.7963 31.3104C98.5862 31.0809 99.6429 30.8282 100.966 30.5523C102.344 30.2589 103.304 29.9599 103.846 29.6568C104.388 29.354 104.659 28.9175 104.659 28.3479C104.659 27.7787 104.42 27.2783 103.943 26.8462C103.465 26.415 102.647 26.1986 101.49 26.1986C100.369 26.1986 99.4591 26.4745 98.761 27.0253C98.0625 27.5764 97.5389 28.3479 97.1903 29.3399L94.1861 28.3755C94.8287 26.7773 95.8025 25.5746 97.1073 24.7661C98.4118 23.9576 99.9186 23.5537 101.627 23.5537C103.538 23.5537 105.054 24.0218 106.175 24.9587C107.296 25.8955 107.856 27.2645 107.856 29.0647V34.906C107.856 35.696 107.985 36.2336 108.242 36.5179C108.499 36.8032 108.886 36.945 109.4 36.945C109.602 36.945 109.795 36.9272 109.979 36.8903C110.162 36.8536 110.337 36.7985 110.503 36.7246V38.9569C110.245 39.1041 109.914 39.2371 109.51 39.3564C109.106 39.4757 108.665 39.5352 108.187 39.5352C106.956 39.5352 106.065 39.2234 105.514 38.5987C104.963 37.9743 104.687 36.9635 104.687 35.5676C104.209 36.8167 103.433 37.7952 102.358 38.5022C101.283 39.2096 100.056 39.5627 98.6783 39.5627Z" fill="#231F20"/>
<path d="M112.845 39.2872V23.8568H116.18V27.5213C116.693 26.1987 117.42 25.2067 118.357 24.5457C119.294 23.8844 120.397 23.5537 121.665 23.5537C123.446 23.5537 124.834 24.1371 125.826 25.3031C126.819 26.4702 127.315 27.9901 127.315 29.8635V39.2872H123.952V30.7177C123.952 29.3954 123.672 28.3342 123.111 27.5351C122.551 26.736 121.591 26.3364 120.231 26.3364C119 26.3364 118.017 26.8049 117.282 27.7421C116.547 28.6789 116.18 29.9922 116.18 31.6821V39.2872H112.845Z" fill="#231F20"/>
<path d="M140.351 36.2562V38.9569C139.947 39.1404 139.52 39.2872 139.07 39.3978C138.619 39.5076 138.109 39.5627 137.54 39.5627C135.886 39.5627 134.692 39.1266 133.957 38.2539C133.222 37.3819 132.855 36.0908 132.855 34.3824V26.612H129.326V23.8568H132.882V19.9161L135.997 18.0424V23.8568H140.351V26.612H135.997V33.9967C135.997 34.9886 136.194 35.6873 136.589 36.0908C136.984 36.4951 137.558 36.697 138.312 36.697C138.716 36.697 139.07 36.6607 139.373 36.5868C139.676 36.5139 140.002 36.4033 140.351 36.2562Z" fill="#231F20"/>
<path d="M149.97 26.3092C148.666 26.3092 147.618 26.6721 146.828 27.3976C146.038 28.1234 145.551 29.1198 145.368 30.3873H154.105C154.031 29.2115 153.668 28.2377 153.016 27.4662C152.364 26.6946 151.349 26.3092 149.97 26.3092ZM156.999 35.8707C156.355 36.9178 155.473 37.7952 154.352 38.5022C153.232 39.2096 151.817 39.5627 150.108 39.5627C148.785 39.5627 147.618 39.3605 146.608 38.9569C145.597 38.5526 144.761 38.0019 144.1 37.3036C143.438 36.6056 142.938 35.7699 142.598 34.7958C142.257 33.8226 142.088 32.7755 142.088 31.6548C142.088 30.5708 142.271 29.5331 142.639 28.5408C143.006 27.5488 143.525 26.6859 144.196 25.951C144.867 25.2161 145.694 24.6331 146.677 24.2012C147.659 23.7698 148.766 23.5537 149.998 23.5537C151.247 23.5537 152.336 23.7647 153.264 24.1875C154.192 24.6102 154.959 25.1704 155.565 25.868C156.172 26.5666 156.627 27.3885 156.929 28.3341C157.233 29.2808 157.385 30.2768 157.385 31.3238V32.4815H145.34C145.468 33.8041 145.928 34.8509 146.718 35.6227C147.508 36.3943 148.62 36.78 150.053 36.78C151.082 36.78 151.918 36.569 152.561 36.1459C153.204 35.7235 153.755 35.1177 154.215 34.3277L156.999 35.8707Z" fill="#231F20"/>
<path d="M159.368 36.5318L161.794 34.2451C162.419 35.0902 163.145 35.7287 163.971 36.1598C164.798 36.5916 165.781 36.8077 166.921 36.8077C168.004 36.8077 168.79 36.5869 169.277 36.146C169.763 35.7051 170.007 35.2091 170.007 34.6584C170.007 34.2541 169.87 33.9376 169.594 33.7074C169.318 33.4782 168.942 33.2901 168.464 33.1425C167.986 32.9957 167.43 32.872 166.796 32.7705C166.162 32.6697 165.496 32.5642 164.798 32.454C163.401 32.2332 162.244 31.8337 161.325 31.2554C160.406 30.6764 159.947 29.6982 159.947 28.3204C159.947 26.98 160.489 25.8405 161.574 24.9036C162.657 23.9671 164.155 23.4987 166.066 23.4987C167.628 23.4987 168.987 23.751 170.145 24.2564C171.302 24.7615 172.34 25.5653 173.259 26.6671L170.696 28.844C170.108 27.9995 169.424 27.3654 168.643 26.943C167.862 26.5206 166.939 26.3093 165.873 26.3093C164.807 26.3093 164.04 26.5156 163.571 26.9289C163.103 27.3426 162.869 27.8157 162.869 28.348C162.869 29.0466 163.277 29.5194 164.095 29.7671C164.913 30.0154 165.974 30.2315 167.279 30.4149C168.032 30.5248 168.753 30.6626 169.442 30.8283C170.131 30.9933 170.738 31.2325 171.261 31.5447C171.785 31.8572 172.203 32.2608 172.516 32.7568C172.827 33.2531 172.984 33.8868 172.984 34.6584C172.984 36.0731 172.437 37.2532 171.344 38.1992C170.25 39.1455 168.749 39.6179 166.838 39.6179C165.092 39.6179 163.599 39.3377 162.359 38.7775C161.118 38.2173 160.122 37.4686 159.368 36.5318Z" fill="#231F20"/>
<path d="M86.6893 47.265H90.0243V58.9758C90.0243 60.4275 89.8266 61.6994 89.432 62.7922C89.0364 63.8852 88.4808 64.7899 87.7646 65.5063C87.0476 66.2228 86.1794 66.76 85.16 67.1182C84.1399 67.4765 83.0142 67.6556 81.7837 67.6556C79.1741 67.6556 77.1621 66.953 75.7477 65.5477C74.3323 64.1424 73.6251 61.9517 73.6251 58.9758V47.265H76.988V58.7279C76.988 60.6388 77.3779 62.0851 78.159 63.0677C78.9398 64.0506 80.1478 64.5419 81.7837 64.5419C83.5103 64.5419 84.7603 64.0506 85.5321 63.0677C86.3035 62.0851 86.6893 60.6388 86.6893 58.7279V47.265Z" fill="#231F20"/>
<path d="M94.0483 67.38V51.9493H97.3832V55.6142C97.8978 54.2915 98.6238 53.2995 99.5606 52.6382C100.498 51.9769 101.6 51.6463 102.868 51.6463C104.65 51.6463 106.038 52.2296 107.03 53.396C108.022 54.5627 108.518 56.0825 108.518 57.9563V67.38H105.156V58.8105C105.156 57.4879 104.875 56.427 104.315 55.6279C103.754 54.8289 102.794 54.4293 101.435 54.4293C100.204 54.4293 99.2205 54.8978 98.486 55.8346C97.7509 56.7714 97.3832 58.085 97.3832 59.7749V67.38H94.0483Z" fill="#231F20"/>
<path d="M115.905 51.9493V67.38H112.542V51.9493H115.905ZM112.129 47.4579C112.129 46.8151 112.317 46.2868 112.694 45.8735C113.07 45.4602 113.608 45.2535 114.306 45.2535C114.986 45.2535 115.519 45.4602 115.905 45.8735C116.29 46.2868 116.483 46.8151 116.483 47.4579C116.483 48.0826 116.29 48.5974 115.905 49.001C115.519 49.4052 114.986 49.6072 114.306 49.6072C113.608 49.6072 113.07 49.4052 112.694 49.001C112.317 48.5974 112.129 48.0826 112.129 47.4579Z" fill="#231F20"/>
<path d="M128.059 67.38H124.559L118.33 51.9493H121.803L125.634 62.0344L126.378 64.3766L127.122 62.0344L131.091 51.9493H134.453L128.059 67.38Z" fill="#231F20"/>
<path d="M143.439 54.4017C142.134 54.4017 141.087 54.7646 140.297 55.4901C139.507 56.2159 139.019 57.2123 138.836 58.4798H147.573C147.499 57.3047 147.136 56.3305 146.484 55.559C145.832 54.7875 144.817 54.4017 143.439 54.4017ZM150.467 63.9632C149.824 65.0103 148.942 65.888 147.821 66.5947C146.7 67.3024 145.285 67.6556 143.576 67.6556C142.254 67.6556 141.087 67.4532 140.076 67.0493C139.065 66.6458 138.23 66.0944 137.568 65.396C136.907 64.6985 136.406 63.8624 136.066 62.8885C135.726 61.9151 135.556 60.868 135.556 59.7474C135.556 58.664 135.74 57.6256 136.107 56.6337C136.475 55.6416 136.994 54.7784 137.665 54.0435C138.335 53.3089 139.162 52.7256 140.145 52.2941C141.128 51.8622 142.235 51.6462 143.466 51.6462C144.716 51.6462 145.804 51.8575 146.733 52.2803C147.66 52.7027 148.428 53.2628 149.034 53.9608C149.64 54.6595 150.095 55.4811 150.398 56.4269C150.701 57.3732 150.853 58.3697 150.853 59.4167V60.5739H138.808C138.937 61.8966 139.396 62.9437 140.186 63.7152C140.976 64.4868 142.088 64.8726 143.521 64.8726C144.55 64.8726 145.386 64.6615 146.029 64.2387C146.672 63.8167 147.224 63.2101 147.683 62.4202L150.467 63.9632Z" fill="#231F20"/>
<path d="M161.657 51.7289C162.226 51.7289 162.727 51.7841 163.159 51.8942C163.591 52.0045 163.981 52.152 164.33 52.3351L163.393 55.3937C163.025 55.1552 162.626 54.9803 162.194 54.8705C161.762 54.7599 161.289 54.7048 160.775 54.7048C159.819 54.7048 159.015 55.1091 158.363 55.9173C157.711 56.7258 157.385 57.9381 157.385 59.5545V67.38H154.05V51.9493H157.385V55.6692C157.733 54.3285 158.253 53.3365 158.942 52.6933C159.631 52.0505 160.536 51.7289 161.657 51.7289Z" fill="#231F20"/>
<path d="M165.349 64.6246L167.775 62.3376C168.399 63.1826 169.126 63.8211 169.953 64.2526C170.779 64.6848 171.762 64.9002 172.902 64.9002C173.986 64.9002 174.771 64.6797 175.258 64.2388C175.745 63.798 175.989 63.302 175.989 62.7509C175.989 62.3473 175.85 62.0301 175.575 61.8003C175.3 61.5707 174.923 61.3825 174.445 61.2353C173.967 61.0885 173.412 60.9645 172.778 60.8633C172.143 60.7629 171.478 60.6567 170.779 60.5465C169.383 60.3261 168.225 59.9265 167.307 59.3479C166.387 58.7691 165.929 57.791 165.929 56.4132C165.929 55.0725 166.47 53.9333 167.555 52.9964C168.638 52.0596 170.136 51.5911 172.047 51.5911C173.609 51.5911 174.968 51.8438 176.126 52.3489C177.284 52.8547 178.322 53.6578 179.241 54.76L176.677 56.9368C176.089 56.092 175.405 55.4586 174.624 55.0355C173.843 54.6131 172.92 54.4018 171.854 54.4018C170.789 54.4018 170.022 54.6084 169.553 55.0217C169.084 55.4351 168.85 55.9083 168.85 56.4408C168.85 57.1391 169.259 57.6119 170.077 57.8599C170.894 58.1079 171.955 58.3239 173.26 58.5074C174.013 58.6177 174.734 58.7554 175.424 58.9208C176.113 59.086 176.719 59.325 177.243 59.6372C177.766 59.95 178.184 60.3537 178.497 60.8496C178.809 61.3456 178.965 61.9794 178.965 62.7509C178.965 64.1659 178.418 65.3457 177.325 66.2918C176.232 67.238 174.73 67.7107 172.819 67.7107C171.073 67.7107 169.58 67.4304 168.34 66.8703C167.1 66.3101 166.103 65.5615 165.349 64.6246Z" fill="#231F20"/>
<path d="M185.663 51.9493V67.38H182.3V51.9493H185.663ZM181.886 47.4579C181.886 46.8151 182.075 46.2868 182.451 45.8735C182.828 45.4602 183.365 45.2535 184.064 45.2535C184.743 45.2535 185.277 45.4602 185.663 45.8735C186.048 46.2868 186.241 46.8151 186.241 47.4579C186.241 48.0826 186.048 48.5974 185.663 49.001C185.277 49.4052 184.743 49.6072 184.064 49.6072C183.365 49.6072 182.828 49.4052 182.451 49.001C182.075 48.5974 181.886 48.0826 181.886 47.4579Z" fill="#231F20"/>
<path d="M199.581 64.3494V67.0493C199.177 67.2335 198.749 67.38 198.299 67.4902C197.849 67.6005 197.339 67.6556 196.77 67.6556C195.116 67.6556 193.921 67.2197 193.187 66.3467C192.451 65.4744 192.084 64.1837 192.084 62.4753V54.7048H188.556V51.9493H192.111V48.009L195.226 46.1352V51.9493H199.581V54.7048H195.226V62.0895C195.226 63.0815 195.424 63.7798 195.819 64.1837C196.213 64.5879 196.788 64.7899 197.541 64.7899C197.945 64.7899 198.299 64.7532 198.603 64.6796C198.905 64.6064 199.232 64.4961 199.581 64.3494Z" fill="#231F20"/>
<path d="M208.759 50.5165L207.491 49.2765L212.039 44.2891L213.692 45.8321L208.759 50.5165ZM209.2 54.4017C207.895 54.4017 206.848 54.7646 206.058 55.4901C205.268 56.2159 204.781 57.2123 204.597 58.4798H213.334C213.26 57.3047 212.897 56.3305 212.246 55.559C211.593 54.7875 210.578 54.4017 209.2 54.4017ZM216.228 63.9632C215.585 65.0103 214.703 65.888 213.582 66.5947C212.461 67.3024 211.046 67.6556 209.337 67.6556C208.015 67.6556 206.848 67.4532 205.837 67.0493C204.826 66.6458 203.991 66.0944 203.329 65.396C202.668 64.6985 202.167 63.8624 201.827 62.8885C201.487 61.9151 201.317 60.868 201.317 59.7474C201.317 58.664 201.501 57.6256 201.869 56.6337C202.236 55.6416 202.755 54.7784 203.426 54.0435C204.096 53.3089 204.923 52.7256 205.906 52.2941C206.889 51.8622 207.996 51.6462 209.227 51.6462C210.477 51.6462 211.565 51.8575 212.494 52.2803C213.421 52.7027 214.189 53.2628 214.795 53.9608C215.401 54.6595 215.856 55.4811 216.159 56.4269C216.462 57.3732 216.614 58.3697 216.614 59.4167V60.5739H204.57C204.698 61.8966 205.158 62.9437 205.947 63.7152C206.737 64.4868 207.849 64.8726 209.282 64.8726C210.312 64.8726 211.147 64.6615 211.79 64.2387C212.433 63.8167 212.985 63.2101 213.444 62.4202L216.228 63.9632Z" fill="#231F20"/>
<path d="M58.8581 39.3077V19.1383H49.5726V32.8522L42.6724 19.1383H32.3522L42.7817 39.3077H58.8581Z" fill="#231F20"/>
<path d="M28.807 39.3077H19.1415V19.1383H28.807V39.3077Z" fill="#231F20"/>
</svg>
